<svg version="1.1" id="Layer_1" xmlns="http://www.w3.org/2000/svg" xmlns:xlink="http://www.w3.org/1999/xlink" x="0px" y="0px"
	 width="100%" viewBox="0 0 348 348" enable-background="new 0 0 348 348" xml:space="preserve">
<path fill="#0380FD" opacity="1.000000" stroke="none" 
	d="
M143.471649,150.071136 
	C143.162079,150.228241 142.852509,150.385330 142.207184,150.872910 
	C141.871414,151.203384 141.690750,151.646759 141.732346,151.757263 
	C141.773941,151.867767 141.752640,151.632584 141.456116,151.672974 
	C140.755539,152.126450 140.351501,152.539551 139.971863,152.976624 
	C139.996246,153.000610 139.966675,152.939072 139.702515,152.947540 
	C139.116669,153.322144 138.794968,153.688263 138.273895,154.125885 
	C138.074509,154.197372 137.837494,154.548477 137.505249,154.632050 
	C136.019348,155.707550 134.865707,156.699493 133.712067,157.691452 
	C133.712067,157.691452 133.836121,157.944489 133.478027,157.883957 
	C132.881989,158.106827 132.644043,158.390213 132.261749,158.677872 
	C132.117416,158.682144 131.972137,158.931732 131.659103,158.975037 
	C130.771942,159.614578 130.197815,160.210815 129.623688,160.807053 
	C129.623688,160.807053 129.257584,160.911667 128.869888,161.135803 
	C127.972397,161.894547 127.462608,162.429138 126.952820,162.963745 
	C126.952820,162.963745 126.996429,163.002304 126.639412,163.018051 
	C123.531677,165.500031 120.780968,167.966278 118.096786,170.763306 
	C118.467560,171.398911 118.771797,171.703735 119.042595,171.996216 
	C119.009155,171.983871 119.032730,171.916580 119.013329,172.323944 
	C119.210312,174.023239 119.172485,175.427460 119.685371,176.588394 
	C122.479378,182.912704 125.548416,189.117599 128.262192,195.474838 
	C133.479126,207.695938 138.491943,220.003983 143.642838,232.253510 
	C150.977905,249.697327 158.281250,267.155273 165.765686,284.535065 
	C168.505341,290.896881 169.396133,298.525269 176.771790,302.024231 
	C176.949112,302.108337 176.912338,302.643707 176.975418,302.968597 
	C176.975418,302.968597 177.133759,303.286041 176.712799,303.327698 
	C171.897644,302.110626 167.256607,301.381012 163.165558,299.472473 
	C156.586685,296.403320 150.371094,292.555450 144.001999,289.036591 
	C144.001999,289.036591 143.997070,288.985168 143.778717,288.725830 
	C139.458923,286.216980 135.357452,283.967468 131.255981,281.717957 
	C131.255981,281.717957 131.018311,281.905975 131.021469,281.543182 
	C130.324158,280.860809 129.623703,280.541199 128.923233,280.221619 
	C128.923233,280.221619 128.895630,280.062592 128.651474,279.793304 
	C126.848808,278.579834 125.311073,277.599213 123.728508,276.697266 
	C110.487663,269.150787 97.238571,261.618774 83.874748,253.952911 
	C83.757530,253.823441 83.408844,253.802658 83.222198,253.514282 
	C81.399384,252.369781 79.763222,251.513641 77.948364,250.432953 
	C77.597893,250.124146 77.426125,250.039886 77.333084,249.893066 
	C77.411812,249.830521 77.268448,249.970688 76.885208,249.697235 
	C76.204636,249.323242 75.907303,249.222717 75.440903,248.857086 
	C71.861229,246.391571 68.450623,244.191162 65.040024,241.990753 
	C65.040024,241.990753 65.015221,241.982620 64.974457,241.706665 
	C64.625763,241.289841 64.317841,241.148987 64.009926,241.008118 
	C64.009926,241.008118 64.002487,240.995804 63.902054,240.710342 
	C63.217979,239.931641 62.634342,239.438385 62.025276,238.972260 
	C61.999847,238.999390 62.054970,238.949799 61.972221,238.633179 
	C60.534657,236.740753 59.179840,235.164978 57.757156,233.392914 
	C57.689285,233.196640 57.333439,232.982422 57.381863,232.833466 
	C57.358265,232.443817 57.197281,232.337769 56.775799,231.922318 
	C56.412354,231.225555 56.220440,230.972809 56.136589,230.723633 
	C56.244659,230.727203 55.988510,230.617813 55.884766,230.313950 
	C55.524509,229.668381 55.267990,229.326691 54.999153,228.609222 
	C54.175350,226.129456 53.363869,224.025421 52.552391,221.921402 
	C52.534325,221.501419 52.516258,221.081451 52.490978,219.932022 
	C52.473766,216.431946 52.463768,213.661316 52.453770,210.890686 
	C52.588947,209.856033 52.724121,208.821396 53.324516,207.362961 
	C54.568836,205.964554 55.608322,205.102905 56.087685,203.998215 
	C62.492203,189.238922 68.777252,174.427826 75.175148,159.665634 
	C82.153526,143.564056 89.282539,127.527603 96.224884,111.410629 
	C101.583954,98.969284 106.833549,86.479187 111.974808,73.946358 
	C114.146736,68.651840 115.915672,63.192017 118.098473,57.575584 
	C119.265060,58.800808 120.200951,60.257774 121.096436,61.782158 
	C121.056023,61.849571 121.197960,61.917133 121.155350,62.251019 
	C121.449287,63.389156 121.785828,64.193405 122.094589,65.389717 
	C122.316826,66.517540 122.566849,67.253304 122.724106,68.341599 
	C124.049629,73.538986 125.467934,78.383827 126.879990,83.618530 
	C127.698135,86.998863 128.522522,89.989342 129.305893,93.299469 
	C129.730789,94.786255 130.196716,95.953392 130.670685,97.353409 
	C130.678741,97.586288 130.892502,98.000420 130.841080,98.348091 
	C131.062561,99.324165 131.335480,99.952568 131.570023,100.930061 
	C131.801956,102.166847 132.072266,103.054535 132.270020,104.329849 
	C133.446426,108.833168 134.695389,112.948868 135.971924,117.039627 
	C135.999496,117.014671 135.926331,117.027969 135.907623,117.386902 
	C136.204422,118.631691 136.519913,119.517548 136.811188,120.567062 
	C136.786957,120.730721 136.981918,120.998070 136.953583,121.338776 
	C137.239624,122.497620 137.554001,123.315765 137.897522,124.091843 
	C137.926666,124.049767 137.825531,124.065659 137.817535,124.474808 
	C138.813004,128.398804 139.816452,131.913666 140.769257,135.583176 
	C140.718628,135.737823 140.895645,136.010925 140.861710,136.271484 
	C140.916504,136.683105 141.005249,136.834137 141.085922,137.333405 
	C141.264038,138.098846 141.450226,138.516068 141.581207,139.295486 
	C142.174561,143.128845 142.823105,146.599991 143.471649,150.071136 
z"/>
<path fill="#4441C3" opacity="1.000000" stroke="none" 
	d="
M245.045593,262.008118 
	C237.273743,244.596649 229.500305,227.185898 221.731873,209.772903 
	C220.649857,207.347580 219.592453,204.911255 218.261078,201.860626 
	C217.540192,200.192047 217.228485,199.043854 216.598175,198.110931 
	C213.929596,194.161179 214.895782,191.440491 218.845596,188.894897 
	C222.253799,186.698334 225.191666,183.771988 228.337479,181.168274 
	C228.669266,181.106003 228.879364,180.911972 229.310242,180.247650 
	C230.488312,179.270508 231.323929,178.631882 232.487396,178.016724 
	C233.412552,177.643677 234.009842,177.247162 234.607147,176.850647 
	C233.786865,176.218582 232.966599,175.586517 232.085083,174.946304 
	C232.023834,174.938171 232.044006,174.816254 232.047363,174.433975 
	C229.681091,168.380371 227.311478,162.709030 224.951309,156.647797 
	C221.561325,147.361176 218.131866,138.475784 214.769455,129.565109 
	C209.692108,116.109734 204.610367,102.655632 199.625000,89.166061 
	C194.289490,74.729034 189.250214,60.179443 183.707230,45.823547 
	C181.119797,39.122303 179.596832,31.272045 170.977158,28.839935 
	C171.059143,28.426281 171.104095,28.189537 171.133118,27.949766 
	C173.203003,27.842138 175.272888,27.734510 177.888550,27.845348 
	C178.434311,28.063812 178.705612,28.097244 178.705612,28.097244 
	C178.705612,28.097244 178.966904,28.016922 178.966904,28.016922 
	C181.905563,29.088301 185.057785,29.780563 187.746750,31.295233 
	C200.950211,38.732647 214.030533,46.388653 227.693863,54.306675 
	C234.473434,58.123428 240.713486,61.600948 246.953552,65.078476 
	C258.275543,71.725113 269.565582,78.426926 280.928833,85.002243 
	C291.466888,91.100044 298.401245,99.281830 296.906555,112.888603 
	C296.267456,115.274490 296.087891,117.077545 295.558044,118.974976 
	C294.521515,120.342186 293.634613,121.547554 293.180389,122.898407 
	C289.069794,135.123199 284.977997,147.354996 280.994690,159.621719 
	C277.365936,170.796600 273.988647,182.053741 270.302155,193.209061 
	C265.472687,207.822891 260.414795,222.361084 255.521835,236.954147 
	C252.952148,244.618134 250.524612,252.329773 248.012939,260.345886 
	C247.989761,261.107544 247.986588,261.543182 247.661926,261.990906 
	C246.913498,262.038574 246.486511,262.074188 245.806427,262.080688 
	C245.384079,262.037048 245.214828,262.022583 245.045593,262.008118 
z"/>
<path fill="#0446C2" opacity="1.000000" stroke="none" 
	d="
M177.316681,303.045532 
	C176.912338,302.643707 176.949112,302.108337 176.771790,302.024231 
	C169.396133,298.525269 168.505341,290.896881 165.765686,284.535065 
	C158.281250,267.155273 150.977905,249.697327 143.642838,232.253510 
	C138.491943,220.003983 133.479126,207.695938 128.262192,195.474838 
	C125.548416,189.117599 122.479378,182.912704 119.685371,176.588394 
	C119.172485,175.427460 119.210312,174.023239 119.245575,172.376129 
	C119.497215,172.020966 119.970581,172.068420 119.970581,172.068420 
	C120.147919,172.358459 120.325264,172.648483 120.898666,173.252747 
	C122.548126,174.671066 123.801514,175.775146 125.054901,176.879227 
	C125.054901,176.879227 125.043495,176.962891 125.124130,177.202942 
	C125.389030,177.757523 125.663445,177.913696 126.028000,177.911530 
	C126.184097,178.212250 126.340187,178.512970 126.794998,179.175201 
	C127.388000,179.703781 127.682281,179.870850 127.976562,180.037918 
	C127.976562,180.037918 127.999443,179.998947 128.049576,180.265335 
	C128.395081,180.694702 128.690475,180.857697 128.985855,181.020676 
	C128.985855,181.020676 129.000000,181.000000 129.071884,181.295792 
	C129.756744,182.069763 130.369736,182.547943 130.982712,183.026123 
	C130.982712,183.026123 131.000610,182.999390 131.040070,183.268799 
	C131.373215,183.715988 131.666885,183.893753 131.960556,184.071518 
	C131.960556,184.071518 131.997879,184.009735 132.006683,184.294342 
	C132.316696,184.764160 132.617920,184.949371 132.919144,185.134583 
	C132.919144,185.134583 132.973145,185.034531 133.021698,185.384888 
	C135.158020,187.818970 137.245789,189.902710 139.446472,192.280884 
	C141.726257,194.659149 143.893143,196.742981 146.060043,198.826813 
	C146.267487,199.117767 146.474915,199.408707 147.030518,200.119080 
	C151.964554,205.233871 156.550430,209.929230 161.136307,214.624573 
	C161.136307,214.624573 161.123322,214.851532 161.251785,215.073090 
	C161.538315,215.558823 161.768417,215.661285 162.180893,215.899048 
	C162.804047,216.533112 163.316864,216.870163 163.855865,217.158066 
	C163.882080,217.108902 163.773865,217.135422 163.854202,217.414185 
	C164.250687,217.898987 164.566818,218.105026 164.947845,218.535294 
	C165.012756,218.759521 165.396729,219.025116 165.400116,219.221527 
	C165.548141,219.690475 165.770706,219.791580 166.064301,219.815094 
	C166.057388,219.908966 166.245285,219.897568 166.330490,220.186310 
	C167.187439,221.084656 167.959183,221.694260 168.866013,222.182526 
	C169.001114,222.061203 168.714310,222.283646 168.779480,222.545334 
	C169.255951,223.133347 169.667252,223.459656 170.078537,223.785980 
	C170.232788,224.118027 170.387024,224.450058 170.917175,225.170822 
	C172.377579,226.511383 173.462082,227.463242 174.546600,228.415085 
	C174.546600,228.415085 174.870346,228.151459 174.819321,228.585968 
	C175.509598,229.686050 176.250916,230.351593 176.992218,231.017151 
	C177.160721,231.297653 177.329224,231.578140 177.840881,232.255890 
	C184.585526,239.183075 190.987015,245.713013 197.388519,252.242935 
	C197.461060,252.401031 197.533600,252.559113 197.907349,253.155670 
	C199.157532,254.676468 200.106522,255.758820 201.041595,257.225311 
	C202.329193,258.749329 203.630707,259.889191 205.168152,261.132721 
	C205.591644,261.516724 205.779236,261.797058 205.969513,262.444916 
	C207.759171,264.432251 209.546112,266.052063 211.166534,267.835327 
	C211.000000,267.998779 211.333206,267.670898 211.254303,268.040466 
	C212.187759,269.213776 213.200104,270.017517 214.141174,270.904694 
	C214.069916,270.988098 214.180283,270.798492 214.157486,271.149658 
	C214.813522,271.945312 215.492371,272.389832 216.126526,272.908020 
	C216.081863,272.981750 216.129807,272.816162 216.201447,273.087524 
	C216.596375,273.513794 216.919647,273.668732 217.162628,273.844025 
	C217.082336,273.864380 217.212952,273.762482 217.166458,274.127502 
	C218.275558,275.409119 219.431152,276.325714 220.627625,277.314636 
	C220.668518,277.386993 220.806961,277.478973 220.564392,277.831604 
	C219.951324,279.234955 219.580811,280.285736 219.199341,281.269440 
	C219.188385,281.202362 219.291901,281.290466 218.959808,281.211823 
	C217.713318,281.942230 216.798935,282.751282 215.884567,283.560364 
	C215.884567,283.560364 215.940933,283.770935 215.688293,283.800964 
	C215.249664,283.877716 215.063690,283.924469 214.512619,283.968658 
	C212.605591,283.341003 211.063644,282.715942 209.266418,281.987396 
	C206.403809,285.162048 203.265808,288.642120 200.115234,292.103790 
	C200.102692,292.085358 200.130051,292.099976 199.804413,292.079041 
	C199.019577,292.443939 198.560394,292.829834 198.114380,293.181213 
	C198.127563,293.146698 198.162094,293.213989 197.813934,293.174438 
	C196.207306,294.062012 194.948853,294.989105 193.690399,295.916229 
	C193.555496,296.167328 193.386856,296.393250 192.769684,296.807983 
	C191.947357,297.132599 191.539841,297.243134 190.945190,297.040283 
	C187.938095,295.466064 187.102356,296.718109 187.368744,299.379700 
	C187.350586,299.370514 187.322922,299.340607 187.040192,299.321838 
	C186.527100,299.580597 186.296768,299.858154 185.822311,300.388000 
	C183.398315,301.532410 181.218445,302.424469 179.038574,303.316528 
	C178.578369,303.251862 178.118149,303.187195 177.316681,303.045532 
z"/>
<path fill="#594FE2" opacity="1.000000" stroke="none" 
	d="
M170.956070,29.019871 
	C179.596832,31.272045 181.119797,39.122303 183.707230,45.823547 
	C189.250214,60.179443 194.289490,74.729034 199.625000,89.166061 
	C204.610367,102.655632 209.692108,116.109734 214.769455,129.565109 
	C218.131866,138.475784 221.561325,147.361176 224.561920,156.637619 
	C221.143997,156.009018 218.124954,155.000687 215.105896,153.992371 
	C215.105896,153.992371 214.846527,153.831009 214.883026,153.238953 
	C214.946548,151.764786 214.973572,150.882706 215.283173,149.963196 
	C215.887299,149.622681 216.208817,149.319565 216.530334,149.016449 
	C216.322220,148.836014 216.114090,148.655579 215.905975,148.475128 
	C215.603790,148.983231 215.301590,149.491318 214.656982,149.967987 
	C213.435364,148.526489 212.556168,147.116394 211.539490,145.485840 
	C210.874969,145.580078 209.588379,145.762527 208.301788,145.944977 
	C199.127335,135.045593 189.952881,124.146194 180.389740,112.817535 
	C179.700012,112.156540 179.398972,111.924812 179.097946,111.693085 
	C179.057404,111.351006 178.904755,111.069794 178.364014,110.438354 
	C177.153442,108.992714 176.218842,107.958168 175.284241,106.923615 
	C175.236145,106.577965 175.074570,106.297752 174.475433,105.638153 
	C172.080963,102.513260 170.010544,99.833191 167.956467,96.774094 
	C165.672760,93.923767 163.372726,91.452469 160.835464,88.836288 
	C160.407822,88.381104 160.217407,88.070816 159.924042,87.573639 
	C159.644318,87.155251 159.424393,86.977013 159.112015,86.470596 
	C159.045456,85.062790 159.028152,84.036415 159.291824,82.966026 
	C159.894608,82.621040 160.216400,82.320084 160.538193,82.019127 
	C160.331268,81.838318 160.124344,81.657509 159.917419,81.476707 
	C159.608353,81.980949 159.299286,82.485199 158.659088,82.997314 
	C157.886368,83.002396 157.444794,82.999596 156.843567,82.690521 
	C154.848022,80.524216 153.012146,78.664200 151.123657,76.450020 
	C148.682053,72.257050 146.293060,68.418236 143.716965,64.278755 
	C143.688644,64.283760 142.586517,64.478508 140.988281,64.760918 
	C141.751038,62.991394 142.238617,61.860252 143.142960,59.762226 
	C140.819916,60.335930 139.343124,60.700642 137.653168,60.957031 
	C137.192245,60.626476 137.041138,60.351181 136.954681,59.685326 
	C136.438370,58.959923 135.954056,58.572021 135.326477,58.118176 
	C135.183212,58.052235 135.025803,57.778893 134.989822,57.485161 
	C134.539307,56.825813 134.124771,56.460197 133.488373,56.065220 
	C132.988663,55.907593 132.697235,55.855717 132.367981,55.628155 
	C132.230286,55.251038 132.116821,55.125999 132.003784,54.754333 
	C132.004242,54.507702 131.943222,54.018230 132.219574,53.804546 
	C134.911911,50.612007 137.327896,47.633156 139.762756,44.792664 
	C139.781616,44.931026 139.695740,44.665276 140.079956,44.743420 
	C143.322235,42.905632 146.180298,40.989704 149.038361,39.073776 
	C149.038361,39.073776 149.026962,38.999405 149.426590,39.021889 
	C151.226944,38.065887 152.627670,37.087406 154.152618,35.986084 
	C154.276855,35.863243 154.615387,35.776699 155.007904,35.838379 
	C157.107071,36.281517 158.813736,36.662971 160.803925,37.107800 
	C160.683884,35.863087 160.568344,34.664928 160.501724,33.974121 
	C164.261444,32.192413 167.608765,30.606142 170.956070,29.019871 
M164.091934,86.451324 
	C164.910309,86.735771 165.728683,87.020226 166.547058,87.304672 
	C166.484726,86.567062 166.422409,85.829460 166.360077,85.091843 
	C165.595703,85.310577 164.831314,85.529305 164.091934,86.451324 
z"/>
<path fill="#05B8FC" opacity="1.000000" stroke="none" 
	d="
M117.867775,57.807327 
	C115.915672,63.192017 114.146736,68.651840 111.974808,73.946358 
	C106.833549,86.479187 101.583954,98.969284 96.224884,111.410629 
	C89.282539,127.527603 82.153526,143.564056 75.175148,159.665634 
	C68.777252,174.427826 62.492203,189.238922 56.087685,203.998215 
	C55.608322,205.102905 54.568836,205.964554 53.435577,206.984360 
	C52.940098,206.867859 52.798779,206.706177 52.622963,205.929535 
	C52.512150,204.229736 52.435841,203.144897 52.527405,201.769653 
	C52.550476,200.643936 52.405666,199.808609 52.260857,198.973297 
	C52.293308,197.270920 52.325756,195.568527 52.460838,193.134232 
	C52.439991,190.913086 52.316502,189.423874 52.193016,187.934647 
	C52.296047,183.931793 52.399078,179.928940 52.525986,175.057877 
	C52.623749,150.447845 52.697636,126.706024 52.968708,102.659790 
	C54.267269,99.628654 55.368649,96.901932 56.643410,94.073723 
	C56.816788,93.972237 57.003193,93.616287 57.182266,93.623642 
	C57.617569,93.488113 57.686657,93.282249 57.757477,92.863297 
	C57.946350,92.713181 58.132504,92.268013 58.431335,92.162659 
	C59.276970,91.432373 59.823772,90.807434 60.550831,90.138687 
	C60.731087,90.094879 60.966908,89.808456 61.311546,89.776749 
	C68.517464,85.544510 75.378746,81.343971 82.240021,77.143433 
	C82.731163,76.935593 83.222313,76.727768 84.144638,76.279572 
	C84.791359,75.769653 85.006897,75.500092 85.222435,75.230537 
	C85.222435,75.230537 85.258873,75.221695 85.572586,75.238136 
	C86.386307,74.905380 86.886314,74.556183 87.561646,74.193253 
	C87.736969,74.179520 88.002403,73.948769 88.321983,73.943245 
	C89.494003,73.328758 90.346443,72.719795 91.460793,72.045563 
	C92.149323,71.655212 92.575943,71.330147 93.360748,70.969559 
	C98.574905,68.013756 103.430870,65.093460 108.286835,62.173164 
	C108.286835,62.173161 108.666786,62.102184 109.158844,61.960930 
	C111.498909,60.605339 113.346909,59.391003 115.147682,58.135254 
	C115.100449,58.093849 115.126511,58.216743 115.474434,58.197422 
	C116.504166,58.054512 117.185966,57.930920 117.867775,57.807327 
M57.999847,128.504135 
	C58.000065,124.679390 57.890926,120.850586 58.032978,117.031113 
	C58.160728,113.596237 58.564159,110.171608 58.845985,106.742462 
	C58.160778,106.733673 57.475567,106.724892 56.790359,106.716103 
	C56.790359,129.895203 56.790359,153.074295 56.790359,176.253387 
	C57.193523,176.256775 57.596684,176.260147 57.999847,176.263519 
	C57.999847,160.676529 57.999847,145.089523 57.999847,128.504135 
z"/>
<path fill="#2525A3" opacity="1.000000" stroke="none" 
	d="
M248.032913,260.019897 
	C250.524612,252.329773 252.952148,244.618134 255.521835,236.954147 
	C260.414795,222.361084 265.472687,207.822891 270.302155,193.209061 
	C273.988647,182.053741 277.365936,170.796600 280.994690,159.621719 
	C284.977997,147.354996 289.069794,135.123199 293.180389,122.898407 
	C293.634613,121.547554 294.521515,120.342186 295.591797,119.455795 
	C295.984314,151.157196 295.979828,182.472168 296.014862,213.787094 
	C296.020264,218.609833 296.207123,223.432373 296.310059,228.255005 
	C296.310059,228.255005 296.465973,228.239151 296.064911,228.241425 
	C295.132690,230.223923 294.601562,232.204147 294.070435,234.184372 
	C292.612610,236.354584 291.154755,238.524796 289.091309,240.873444 
	C288.045044,241.044952 287.604340,241.038025 286.908081,241.110443 
	C286.441101,241.465622 286.229736,241.741425 286.013062,242.013062 
	C286.007782,242.008896 286.029785,242.031891 285.692505,242.182068 
	C280.857025,244.747437 276.345886,247.138947 271.864227,249.584396 
	C267.188354,252.135788 261.946106,254.070267 258.062256,257.523682 
	C254.737442,260.479980 251.861481,261.110809 248.032913,260.019897 
z"/>
<path fill="#1C1C8A" opacity="1.000000" stroke="none" 
	d="
M248.012939,260.345886 
	C251.861481,261.110809 254.737442,260.479980 258.062256,257.523682 
	C261.946106,254.070267 267.188354,252.135788 271.864227,249.584396 
	C276.345886,247.138947 280.857025,244.747437 285.718597,242.594971 
	C286.182922,243.676727 286.283875,244.495712 286.384796,245.314713 
	C286.384796,245.314713 286.000275,245.003983 285.883209,245.193878 
	C285.477356,246.113693 285.188568,246.843613 284.899780,247.573547 
	C284.899780,247.573547 284.801270,247.970032 284.294373,248.137955 
	C283.148468,249.655991 282.509460,251.006119 281.870483,252.356232 
	C281.814850,252.517303 281.759186,252.678375 281.233276,253.081848 
	C280.681335,253.664703 280.599701,254.005142 280.518036,254.345596 
	C280.518036,254.345596 280.431458,254.366119 280.073669,254.409058 
	C278.872620,256.076141 278.029297,257.700317 277.186005,259.324463 
	C276.951843,259.793701 276.717682,260.262939 276.228882,261.017944 
	C275.974182,261.303650 275.909424,261.319244 275.909424,261.319244 
	C275.909424,261.319244 275.890442,261.653137 275.443787,261.801697 
	C272.130005,264.185760 274.063629,266.122070 275.380249,268.096832 
	C275.444916,269.435333 275.509552,270.773834 275.160645,272.700195 
	C274.530701,274.892944 274.136444,276.496704 274.126587,278.102875 
	C274.057251,289.387390 274.154938,300.673981 273.955566,311.955566 
	C273.926208,313.616913 272.608429,315.255493 271.886749,316.904602 
	C270.774750,315.705292 269.516174,314.608917 268.585114,313.282593 
	C267.186707,311.290588 266.017822,309.137451 264.751373,307.052826 
	C264.751373,307.052826 264.550049,306.899841 264.607300,306.462158 
	C264.411865,305.704224 264.159241,305.383942 263.906586,305.063660 
	C263.906586,305.063660 264.006409,305.025330 264.001556,304.704773 
	C263.540680,303.691223 263.084656,302.998230 262.628632,302.305206 
	C262.628632,302.305206 262.941895,302.114227 262.874939,301.840271 
	C262.233063,300.695221 261.658081,299.824127 261.083099,298.953003 
	C261.083099,298.953003 261.001678,298.952545 261.052765,298.539001 
	C259.616180,293.670227 258.412567,289.090942 256.540588,284.803497 
	C255.301498,281.965546 253.103912,279.546051 251.335419,276.939240 
	C251.172577,276.596466 251.009720,276.253693 250.880524,275.278198 
	C250.540466,274.104584 250.166763,273.563751 249.793076,273.022888 
	C249.793076,273.022888 249.589264,272.882935 249.693481,272.422577 
	C249.320587,271.262787 248.843475,270.563324 248.366348,269.863892 
	C248.366348,269.863892 248.130768,269.634003 248.082458,269.492432 
	C248.034164,269.350891 247.993515,269.478485 247.993515,269.478485 
	C247.768219,268.938446 247.542923,268.398407 247.381653,267.306885 
	C247.219025,266.528473 246.992371,266.301544 246.765717,266.074615 
	C246.765701,266.074615 246.547256,265.882904 246.702972,265.354645 
	C246.916763,264.557709 246.974808,264.289032 247.274963,263.844604 
	C247.672516,263.105499 247.827957,262.542145 247.983398,261.978821 
	C247.986588,261.543182 247.989761,261.107544 248.012939,260.345886 
z"/>
<path fill="#F0FAFA" opacity="1.000000" stroke="none" 
	d="
M52.771523,102.964203 
	C52.697636,126.706024 52.623749,150.447845 52.359482,174.629669 
	C51.115032,173.985779 49.148468,172.908295 49.140820,171.817078 
	C48.966209,146.893036 48.987141,121.967453 49.061611,97.042427 
	C49.065140,95.862129 49.577324,94.351036 50.398216,93.560623 
	C54.959351,89.168884 59.910160,85.164688 64.289566,80.606949 
	C67.628479,77.132080 68.179520,76.976997 70.546844,82.067993 
	C67.403191,84.978523 64.185051,87.393486 60.966908,89.808456 
	C60.966908,89.808456 60.731087,90.094879 60.174438,90.111542 
	C59.122692,90.841476 58.627598,91.554749 58.132504,92.268013 
	C58.132504,92.268013 57.946350,92.713181 57.629814,92.927505 
	C57.153015,93.262772 57.049652,93.420921 57.003193,93.616287 
	C57.003193,93.616287 56.816788,93.972237 56.270657,94.126862 
	C54.740192,97.175728 53.755859,100.069969 52.771523,102.964203 
z"/>
<path fill="#F6F8F6" opacity="1.000000" stroke="none" 
	d="
M228.012512,181.018707 
	C225.191666,183.771988 222.253799,186.698334 218.845596,188.894897 
	C214.895782,191.440491 213.929596,194.161179 216.598175,198.110931 
	C217.228485,199.043854 217.540192,200.192047 218.014282,201.612091 
	C217.018204,204.343124 215.858475,206.653244 215.037872,209.078125 
	C214.287247,211.296234 213.903290,213.638443 213.127350,216.892059 
	C210.316956,213.495697 210.954239,211.410675 212.162476,208.635971 
	C213.303482,206.015625 214.358276,201.837524 213.078140,199.979324 
	C209.757782,195.159683 210.978287,191.777390 214.842834,188.047943 
	C213.475815,187.243439 212.363785,186.588989 211.251755,185.934540 
	C211.317734,185.610123 211.383713,185.285721 211.449677,184.961304 
	C213.037598,184.961304 214.625504,184.961304 216.139008,184.961304 
	C216.631058,182.912552 217.046707,181.181885 217.462357,179.451218 
	C218.678391,180.091873 219.894440,180.732544 221.110474,181.373199 
	C221.119507,181.045486 221.128525,180.717773 221.137558,180.390076 
	C223.320877,180.549759 225.504211,180.709457 228.012512,181.018707 
z"/>
<path fill="#F0FAFA" opacity="1.000000" stroke="none" 
	d="
M129.064194,50.996044 
	C127.117256,50.996044 125.170326,50.996044 123.671082,50.996044 
	C123.671082,55.296108 123.671082,58.585636 123.009651,61.935829 
	C121.964798,61.970039 121.581383,61.943588 121.197960,61.917133 
	C121.197960,61.917133 121.056023,61.849571 121.088852,61.391251 
	C120.487923,59.072651 119.854156,57.212368 119.220383,55.352089 
	C117.855759,56.306973 116.491135,57.261860 115.126511,58.216743 
	C115.126511,58.216743 115.100449,58.093849 114.767693,58.100590 
	C112.975494,58.408978 111.516060,58.710625 110.056618,59.012272 
	C106.390038,58.390690 102.645592,58.033272 99.103516,56.989262 
	C98.017189,56.669071 97.485245,54.467983 97.240250,52.861763 
	C101.577057,57.317719 111.129189,56.635811 114.065941,51.347313 
	C116.275078,51.858448 118.510880,52.375755 121.488937,53.064796 
	C120.637039,51.701866 120.065987,50.788254 119.326782,49.605633 
	C123.386017,49.046669 127.234779,48.516689 131.568985,48.024986 
	C132.054428,48.063263 132.197830,48.213123 132.003220,48.449043 
	C130.893799,49.455318 129.979004,50.225681 129.064194,50.996044 
z"/>
<path fill="#D0F0FB" opacity="1.000000" stroke="none" 
	d="
M83.991959,254.082382 
	C97.238571,261.618774 110.487663,269.150787 123.728508,276.697266 
	C125.311073,277.599213 126.848808,278.579834 128.571198,279.801697 
	C124.465393,278.289215 120.108871,276.679016 115.944664,274.670135 
	C108.056892,270.864960 100.232040,266.921051 92.484222,262.838959 
	C90.064812,261.564270 87.977188,259.659851 85.348099,257.673523 
	C84.636322,256.229706 84.314140,255.156036 83.991959,254.082382 
z"/>
<path fill="#E6F1F7" opacity="1.000000" stroke="none" 
	d="
M197.760544,252.092255 
	C190.987015,245.713013 184.585526,239.183075 178.081894,232.332703 
	C180.400696,232.099304 182.827896,232.116791 185.237152,232.333511 
	C185.705017,232.375595 186.564346,233.418320 186.465561,233.621521 
	C184.197418,238.287460 188.622726,238.429901 190.791046,239.855560 
	C193.011017,241.315186 195.534042,242.313889 197.924377,243.514389 
	C197.232788,244.116516 196.541183,244.718643 195.849579,245.320770 
	C197.308746,245.202118 198.767899,245.083450 200.227066,244.964813 
	C199.528900,247.290405 198.830734,249.615982 197.760544,252.092255 
z"/>
<path fill="#45468F" opacity="1.000000" stroke="none" 
	d="
M264.772980,307.439758 
	C266.017822,309.137451 267.186707,311.290588 268.585114,313.282593 
	C269.516174,314.608917 270.774750,315.705292 271.886749,316.904602 
	C272.608429,315.255493 273.926208,313.616913 273.955566,311.955566 
	C274.154938,300.673981 274.057251,289.387390 274.126587,278.102875 
	C274.136444,276.496704 274.530701,274.892944 275.065735,273.092865 
	C275.432404,287.478943 275.560364,302.061188 275.385162,316.639801 
	C275.370239,317.881927 273.524200,319.571411 272.154785,320.120789 
	C271.514130,320.377808 269.565521,318.626251 268.934082,317.409210 
	C267.335724,314.328400 266.147247,311.034973 264.772980,307.439758 
z"/>
<path fill="#F0FAFA" opacity="1.000000" stroke="none" 
	d="
M135.015976,109.992271 
	C136.801514,109.992271 138.587051,109.992271 140.995804,109.992271 
	C139.102692,116.054436 140.744644,120.727180 144.634033,124.947128 
	C144.889206,126.148628 145.192688,127.601158 144.603577,128.367981 
	C142.675720,130.877380 141.989120,133.075272 144.553482,135.613953 
	C144.923859,135.980621 144.232986,137.419266 143.701385,138.693481 
	C142.791840,138.994492 142.214127,138.963882 141.636414,138.933273 
	C141.450226,138.516068 141.264038,138.098846 141.243866,137.227936 
	C141.238464,136.519791 141.067062,136.265366 140.895645,136.010925 
	C140.895645,136.010925 140.718628,135.737823 140.830231,135.143311 
	C139.903076,131.054413 138.864304,127.560036 137.825531,124.065659 
	C137.825531,124.065659 137.926666,124.049767 137.948059,123.741470 
	C137.640289,122.621475 137.311096,121.809776 136.981918,120.998070 
	C136.981918,120.998070 136.786957,120.730721 136.866486,120.186661 
	C136.606110,118.771057 136.266220,117.899513 135.926331,117.027969 
	C135.926331,117.027969 135.999496,117.014671 136.003052,116.636597 
	C135.676407,114.169777 135.346191,112.081024 135.015976,109.992271 
z"/>
<path fill="#2C2986" opacity="1.000000" stroke="none" 
	d="
M296.597717,227.928207 
	C296.207123,223.432373 296.020264,218.609833 296.014862,213.787094 
	C295.979828,182.472168 295.984314,151.157196 295.942078,119.361420 
	C296.087891,117.077545 296.267456,115.274490 296.741760,113.221664 
	C297.102661,145.871887 297.185669,178.771881 297.217865,211.671921 
	C297.223053,216.981628 297.001862,222.291580 296.597717,227.928207 
z"/>
<path fill="#E6F1F7" opacity="1.000000" stroke="none" 
	d="
M205.966827,262.077393 
	C205.779236,261.797058 205.591644,261.516724 205.078827,260.829895 
	C203.842651,259.273560 202.931717,258.123718 202.082993,256.926086 
	C202.145187,256.878296 202.273224,256.787689 202.273224,256.787689 
	C203.756332,256.906006 205.239441,257.024292 206.727600,257.142151 
	C208.150208,259.643494 207.762909,263.599487 212.981720,262.701752 
	C214.485748,262.443054 218.540405,266.798615 218.341125,268.718567 
	C217.676620,275.121887 221.851624,272.026428 224.128998,272.225739 
	C224.387222,274.681030 224.682693,276.876099 224.778641,279.079895 
	C224.792679,279.402527 223.856613,279.766510 223.000671,279.728394 
	C222.029770,278.723267 221.418365,278.101135 220.806961,277.478973 
	C220.806961,277.478973 220.668518,277.386993 220.539688,277.026581 
	C219.344894,275.698273 218.278931,274.730377 217.212952,273.762482 
	C217.212952,273.762482 217.082336,273.864380 217.078979,273.582581 
	C216.760361,273.139252 216.445084,272.977722 216.129807,272.816162 
	C216.129807,272.816162 216.081863,272.981750 216.042328,272.621948 
	C215.395294,271.774261 214.787781,271.286377 214.180267,270.798492 
	C214.180283,270.798492 214.069916,270.988098 214.062592,270.597046 
	C213.147919,269.360962 212.240570,268.515930 211.333206,267.670898 
	C211.333206,267.670898 211.000000,267.998779 211.059280,267.528992 
	C209.401321,265.398560 207.684082,263.737976 205.966827,262.077393 
z"/>
<path fill="#F0F3F5" opacity="1.000000" stroke="none" 
	d="
M247.120728,64.747734 
	C240.713486,61.600948 234.473434,58.123428 228.035141,54.367485 
	C229.799576,54.117901 231.798050,53.920502 233.717133,54.224480 
	C237.289169,54.790272 240.847519,55.524044 244.344528,56.442993 
	C245.822662,56.831413 248.121414,57.679615 248.302658,58.645996 
	C248.639679,60.443020 247.697510,62.479939 247.120728,64.747734 
z"/>
<path fill="#DAEEF8" opacity="1.000000" stroke="none" 
	d="
M144.038254,289.398560 
	C150.371094,292.555450 156.586685,296.403320 163.165558,299.472473 
	C167.256607,301.381012 171.897644,302.110626 176.717529,303.505005 
	C171.333176,307.255951 165.960449,303.988068 160.897202,301.986359 
	C156.381409,300.201080 152.391266,296.997162 148.336258,294.178833 
	C146.688156,293.033386 145.481842,291.252350 144.038254,289.398560 
z"/>
<path fill="#675ED7" opacity="1.000000" stroke="none" 
	d="
M215.214081,154.306458 
	C218.124954,155.000687 221.143997,156.009018 224.552460,157.027527 
	C227.311478,162.709030 229.681091,168.380371 231.731537,174.348114 
	C229.319794,172.328583 227.227234,170.012665 225.134644,167.696732 
	C221.863846,163.337997 218.593048,158.979263 215.214081,154.306458 
z"/>
<path fill="#F0FAFA" opacity="1.000000" stroke="none" 
	d="
M158.044586,92.348068 
	C158.363739,90.861130 158.720078,89.719673 159.341644,88.189575 
	C159.606903,87.800934 160.026993,87.760521 160.026993,87.760529 
	C160.217407,88.070816 160.407822,88.381104 160.928467,89.155930 
	C163.485855,92.131340 165.712997,94.642235 167.940140,97.153122 
	C170.010544,99.833191 172.080963,102.513260 174.255737,105.524178 
	C171.799606,106.172050 169.244644,106.614822 166.675125,106.728752 
	C165.913498,106.762520 164.381821,105.685722 164.445923,105.432800 
	C164.844681,103.859276 165.596786,102.375290 165.708221,102.109619 
	C163.089066,98.875854 160.585419,95.784706 158.044586,92.348068 
z"/>
<path fill="#F0FAFA" opacity="1.000000" stroke="none" 
	d="
M56.028522,230.720078 
	C56.220440,230.972809 56.412354,231.225555 56.811001,232.040848 
	C57.017738,232.603409 57.333439,232.982422 57.333439,232.982422 
	C57.333439,232.982422 57.689285,233.196640 57.792183,233.742676 
	C58.286716,236.730423 58.582474,239.257690 62.054970,238.949799 
	C62.054970,238.949799 61.999847,238.999390 62.000774,239.307709 
	C62.018326,240.063583 62.034946,240.511154 62.051571,240.958710 
	C55.982693,240.861725 50.221615,234.988800 50.348091,228.832275 
	C50.394093,226.592941 50.895535,224.362991 51.577339,222.425446 
	C52.980820,224.809753 53.996147,226.897369 55.011475,228.984985 
	C55.267990,229.326691 55.524509,229.668381 55.889015,230.330780 
	C55.997005,230.651459 56.028522,230.720078 56.028522,230.720078 
z"/>
<path fill="#F0FAFA" opacity="1.000000" stroke="none" 
	d="
M83.874741,253.952911 
	C84.314140,255.156036 84.636322,256.229706 84.997589,257.640564 
	C78.474358,255.712601 71.912033,253.447464 65.349709,251.182312 
	C65.186234,250.739746 65.022751,250.297195 64.859268,249.854630 
	C66.223129,249.436646 67.581696,248.707703 68.952263,248.684387 
	C70.451111,248.658920 71.961052,249.285873 73.988297,249.360733 
	C74.876938,249.102737 75.243454,249.112473 75.609970,249.122208 
	C75.907303,249.222717 76.204636,249.323242 76.881042,249.676849 
	C77.260109,249.929916 77.254364,249.955627 77.254364,249.955627 
	C77.426125,250.039886 77.597893,250.124146 78.026161,250.792969 
	C79.991386,252.185898 81.700119,252.994278 83.408844,253.802658 
	C83.408844,253.802658 83.757530,253.823441 83.874741,253.952911 
z"/>
<path fill="#FAFDF9" opacity="1.000000" stroke="none" 
	d="
M165.396729,219.025116 
	C165.396729,219.025116 165.012756,218.759521 164.882019,218.245514 
	C164.425476,217.532822 164.099670,217.334122 163.773865,217.135422 
	C163.773865,217.135422 163.882080,217.108902 163.914276,216.794861 
	C163.957214,215.992233 163.967972,215.503647 163.978729,215.015045 
	C164.413956,214.790298 164.904861,214.633484 165.275360,214.329773 
	C167.635941,212.394653 170.197021,210.336594 172.833344,213.506348 
	C175.705750,216.959946 173.381729,219.491592 169.990311,221.886749 
	C169.136566,222.152420 168.925430,222.218033 168.714310,222.283646 
	C168.714310,222.283646 169.001114,222.061203 168.918884,221.831238 
	C167.972855,221.033386 167.109070,220.465469 166.245285,219.897568 
	C166.245285,219.897568 166.057388,219.908966 165.993774,219.662354 
	C165.801071,219.218979 165.623260,219.088776 165.396729,219.025116 
z"/>
<path fill="#E9F1F7" opacity="1.000000" stroke="none" 
	d="
M161.110733,214.228806 
	C156.550430,209.929230 151.964554,205.233871 147.283234,200.221924 
	C147.960510,199.649353 148.817749,199.036804 149.491898,199.196594 
	C153.213684,200.078918 160.868408,209.877853 161.110733,214.228806 
z"/>
<path fill="#F0FAFA" opacity="1.000000" stroke="none" 
	d="
M93.002563,71.005074 
	C92.575943,71.330147 92.149323,71.655212 91.155426,71.988213 
	C90.382660,71.972130 90.177155,71.948105 89.971649,71.924072 
	C89.616920,70.360382 89.262184,68.796692 88.915154,67.266968 
	C92.349655,65.691818 97.291367,66.534233 97.218765,61.114841 
	C98.944420,62.072262 100.613846,62.998482 102.421188,64.226494 
	C99.373589,66.687210 96.188072,68.846146 93.002563,71.005074 
z"/>
<path fill="#F0FAFA" opacity="1.000000" stroke="none" 
	d="
M72.993843,80.985687 
	C73.070877,79.737358 72.908966,78.412262 73.279686,77.258278 
	C73.869225,75.423126 74.366180,73.044624 75.732117,72.114273 
	C77.151344,71.147621 79.556168,71.628052 82.772537,71.379738 
	C80.379204,73.897667 79.220535,75.116653 77.757744,76.884293 
	C75.967033,78.617188 74.480438,79.801437 72.993843,80.985687 
z"/>
<path fill="#D0F0FB" opacity="1.000000" stroke="none" 
	d="
M72.740303,81.102097 
	C74.480438,79.801437 75.967033,78.617188 77.715218,77.244354 
	C79.114769,77.045242 80.252724,77.034714 81.815353,77.083801 
	C75.378746,81.343971 68.517464,85.544510 61.311546,89.776749 
	C64.185051,87.393486 67.403191,84.978523 70.823151,82.294022 
	C71.512230,81.755814 71.999496,81.487152 72.740303,81.102097 
z"/>
<path fill="#1E54B8" opacity="1.000000" stroke="none" 
	d="
M200.127808,292.122223 
	C203.265808,288.642120 206.403809,285.162048 209.266418,281.987396 
	C211.063644,282.715942 212.605591,283.341003 214.407990,284.283691 
	C212.767639,285.705261 210.866852,286.809204 208.645874,287.964935 
	C207.452820,288.616119 206.579971,289.215546 205.707123,289.814941 
	C205.707123,289.814941 205.317719,289.913818 204.917664,290.039490 
	C204.300888,290.403198 204.084198,290.641266 203.867508,290.879364 
	C203.867508,290.879364 203.961823,290.965698 203.636871,290.914673 
	C202.852402,291.221954 202.392899,291.580261 201.933395,291.938599 
	C201.933395,291.938599 201.983856,292.001831 201.662811,291.949432 
	C200.937119,291.972107 200.532471,292.047150 200.127808,292.122223 
z"/>
<path fill="#F0FAFA" opacity="1.000000" stroke="none" 
	d="
M49.768242,84.949104 
	C52.172733,82.864098 53.530823,79.077576 57.986244,82.090187 
	C55.371498,84.957626 52.808006,87.768867 49.513702,91.381546 
	C49.513702,88.769066 49.513702,87.008049 49.768242,84.949104 
z"/>
<path fill="#45468F" opacity="1.000000" stroke="none" 
	d="
M251.370667,277.292603 
	C253.103912,279.546051 255.301498,281.965546 256.540588,284.803497 
	C258.412567,289.090942 259.616180,293.670227 261.084534,298.513550 
	C257.845428,291.816406 254.625671,284.731171 251.370667,277.292603 
z"/>
<path fill="#6B62D2" opacity="1.000000" stroke="none" 
	d="
M170.977158,28.839935 
	C167.608765,30.606142 164.261444,32.192413 160.501724,33.974121 
	C160.568344,34.664928 160.683884,35.863087 160.803925,37.107800 
	C158.813736,36.662971 157.107071,36.281517 155.161926,35.609283 
	C155.311066,34.943832 155.698669,34.569160 156.086273,34.194481 
	C156.262344,34.130173 156.438431,34.065865 157.050461,33.824047 
	C157.778229,33.535881 157.967499,33.330608 158.054214,33.030731 
	C162.183533,31.281765 166.312866,29.532799 170.787659,27.866800 
	C171.104095,28.189537 171.059143,28.426281 170.977158,28.839935 
z"/>
<path fill="#E2F0FA" opacity="1.000000" stroke="none" 
	d="
M120.025360,171.712326 
	C119.970581,172.068420 119.497215,172.020966 119.264969,171.968781 
	C119.032730,171.916580 119.009155,171.983871 118.964020,171.671936 
	C118.622665,171.050842 118.326462,170.741684 118.030258,170.432526 
	C120.780968,167.966278 123.531677,165.500031 126.624702,162.993210 
	C127.457764,165.432053 127.948517,167.911499 128.439270,170.390930 
	C127.953796,170.516693 127.468323,170.642441 126.982849,170.768204 
	C126.443481,169.731613 125.904114,168.695023 124.893509,166.752808 
	C123.130142,168.439255 121.605141,169.897751 120.025360,171.712326 
z"/>
<path fill="#DAEEF8" opacity="1.000000" stroke="none" 
	d="
M191.132309,297.353699 
	C191.539841,297.243134 191.947357,297.132599 192.670563,296.995697 
	C195.251053,299.072723 193.138260,300.111298 191.769623,300.756012 
	C187.934235,302.562683 183.938812,303.992523 179.304962,303.539917 
	C181.218445,302.424469 183.398315,301.532410 186.091339,300.365967 
	C186.843979,299.841248 187.083450,299.590942 187.322922,299.340607 
	C187.322922,299.340607 187.350586,299.370514 187.671936,299.334808 
	C189.039612,298.650635 190.085968,298.002167 191.132309,297.353699 
z"/>
<path fill="#F0FAFA" opacity="1.000000" stroke="none" 
	d="
M131.981171,47.989876 
	C131.997330,46.612030 132.086746,45.307571 132.227509,43.254280 
	C135.065796,42.870808 137.988266,42.475964 140.928406,42.641167 
	C140.529297,43.689236 140.112518,44.177254 139.695740,44.665276 
	C139.695740,44.665276 139.781616,44.931026 139.411652,44.841660 
	C136.760406,45.905899 134.479111,47.059513 132.197830,48.213123 
	C132.197830,48.213123 132.054428,48.063263 131.981171,47.989876 
z"/>
<path fill="#D0F0FB" opacity="1.000000" stroke="none" 
	d="
M131.211334,282.099060 
	C135.357452,283.967468 139.458923,286.216980 143.753967,288.733215 
	C138.401627,289.346893 135.071594,285.350037 131.211334,282.099060 
z"/>
<path fill="#F6F8F6" opacity="1.000000" stroke="none" 
	d="
M225.096252,168.105652 
	C227.227234,170.012665 229.319794,172.328583 231.728180,174.730377 
	C232.044006,174.816254 232.023834,174.938171 232.069855,175.326706 
	C232.130447,176.474579 232.145004,177.233917 232.159561,177.993256 
	C231.323929,178.631882 230.488312,179.270508 229.355560,180.027512 
	C228.218994,177.772690 227.367584,175.403641 226.544495,173.024765 
	C226.026962,171.528961 225.551926,170.018463 225.096252,168.105652 
z"/>
<path fill="#F0FAFA" opacity="1.000000" stroke="none" 
	d="
M137.837494,154.548477 
	C137.837494,154.548477 138.074509,154.197372 138.522293,154.088684 
	C139.302277,153.633026 139.634476,153.286057 139.966675,152.939072 
	C139.966675,152.939072 139.996246,153.000610 140.297028,152.974731 
	C140.982758,152.510101 141.367706,152.071335 141.752640,151.632584 
	C141.752640,151.632584 141.773941,151.867767 142.049652,151.874054 
	C142.546875,151.916412 142.768402,151.952484 142.989944,151.988541 
	C142.992096,153.058655 142.994232,154.128769 142.998199,155.599442 
	C143.000000,156.000000 143.001678,155.998276 143.001678,155.998276 
	C139.272034,155.822235 138.518753,157.566559 139.425217,161.335236 
	C138.373520,160.423294 137.321808,159.511337 136.278366,157.989044 
	C136.803589,156.435272 137.320541,155.491882 137.837494,154.548477 
z"/>
<path fill="#D0F0FB" opacity="1.000000" stroke="none" 
	d="
M93.360748,70.969559 
	C96.188072,68.846146 99.373589,66.687210 102.771805,64.260056 
	C104.505074,63.344952 106.025642,62.698082 107.916519,62.112186 
	C103.430870,65.093460 98.574905,68.013756 93.360748,70.969559 
z"/>
<path fill="#F0FAFA" opacity="1.000000" stroke="none" 
	d="
M51.786766,220.011810 
	C48.137867,217.663620 47.818428,213.850342 51.467743,211.452972 
	C51.863224,214.590469 51.824993,217.301132 51.786766,220.011810 
z"/>
<path fill="#E9F1F7" opacity="1.000000" stroke="none" 
	d="
M146.051727,198.429855 
	C143.893143,196.742981 141.726257,194.659149 139.651749,192.268555 
	C139.744125,191.961792 140.148163,191.884903 140.148163,191.884903 
	C141.557877,191.884903 142.967590,191.884903 144.931717,191.884903 
	C145.260818,193.704895 145.652115,195.868896 146.051727,198.429855 
z"/>
<path fill="#D8F3FD" opacity="1.000000" stroke="none" 
	d="
M141.581207,139.295486 
	C142.214127,138.963882 142.791840,138.994492 143.657745,139.037842 
	C143.945953,139.050598 143.962997,139.532333 143.990921,140.070526 
	C144.332932,141.081680 144.647003,141.554657 144.961075,142.027618 
	C144.689194,144.618378 144.417313,147.209152 143.808563,149.935516 
	C142.823105,146.599991 142.174561,143.128845 141.581207,139.295486 
z"/>
<path fill="#D0F0FB" opacity="1.000000" stroke="none" 
	d="
M75.440903,248.857086 
	C75.243454,249.112473 74.876938,249.102737 74.234665,249.107483 
	C70.971344,246.988586 67.983780,244.855209 65.018120,242.356293 
	C68.450623,244.191162 71.861229,246.391571 75.440903,248.857086 
z"/>
<path fill="#675ED7" opacity="1.000000" stroke="none" 
	d="
M208.437653,146.237915 
	C209.588379,145.762527 210.874969,145.580078 211.539490,145.485840 
	C212.556168,147.116394 213.435364,148.526489 214.657288,149.968292 
	C215.000000,150.000000 215.000610,150.000610 215.000610,150.000610 
	C214.973572,150.882706 214.946548,151.764786 214.860535,153.087875 
	C212.725540,151.196198 210.649536,148.863525 208.437653,146.237915 
z"/>
<path fill="#6B62D2" opacity="1.000000" stroke="none" 
	d="
M140.079956,44.743420 
	C140.112518,44.177254 140.529297,43.689236 141.100800,43.012779 
	C141.763824,42.530067 142.272095,42.235794 143.258057,41.701202 
	C144.197479,41.180782 144.659225,40.900681 145.120972,40.620575 
	C146.190399,40.116230 147.259827,39.611885 148.683807,39.090660 
	C146.180298,40.989704 143.322235,42.905632 140.079956,44.743420 
z"/>
<path fill="#E6F1F7" opacity="1.000000" stroke="none" 
	d="
M221.847656,280.679169 
	C221.714844,283.020996 221.582016,285.362823 221.449188,287.704651 
	C221.008942,287.865417 220.568680,288.026215 220.128418,288.186981 
	C219.427750,286.658569 218.727066,285.130157 218.171783,283.002808 
	C218.642075,282.032745 218.966980,281.661591 219.291901,281.290466 
	C219.291901,281.290466 219.188385,281.202362 219.539795,281.243835 
	C220.543350,281.083282 221.195511,280.881226 221.847656,280.679169 
z"/>
<path fill="#F0FAFA" opacity="1.000000" stroke="none" 
	d="
M52.359528,202.060074 
	C52.435841,203.144897 52.512150,204.229736 52.408943,205.688812 
	C46.791908,205.120331 48.689804,202.098846 50.654697,199.406937 
	C51.476166,200.451935 51.917847,201.255997 52.359528,202.060074 
z"/>
<path fill="#E2F0FA" opacity="1.000000" stroke="none" 
	d="
M140.124939,191.573181 
	C140.148163,191.884903 139.744125,191.961792 139.538849,191.974121 
	C137.245789,189.902710 135.158020,187.818970 132.973846,185.415558 
	C136.516495,185.708740 139.810196,186.726273 140.124939,191.573181 
z"/>
<path fill="#F0FAFA" opacity="1.000000" stroke="none" 
	d="
M51.846157,187.959686 
	C52.316502,189.423874 52.439991,190.913086 52.365788,192.718002 
	C51.125767,192.295319 50.083439,191.556961 49.041107,190.818604 
	C49.860500,189.873962 50.679901,188.929337 51.846157,187.959686 
z"/>
<path fill="#F0FAFA" opacity="1.000000" stroke="none" 
	d="
M149.295181,38.110668 
	C148.042938,36.694057 146.790695,35.277451 145.538452,33.860847 
	C145.640717,33.605042 145.742996,33.349239 145.845261,33.093437 
	C147.993408,34.035736 150.141556,34.978039 152.474548,36.226051 
	C151.537994,37.058071 150.416595,37.584370 149.295181,38.110668 
z"/>
<path fill="#F0FAFA" opacity="1.000000" stroke="none" 
	d="
M88.002403,73.948769 
	C88.002403,73.948769 87.736969,74.179520 87.174362,74.127777 
	C86.091782,74.055069 85.571815,74.034111 85.051849,74.013161 
	C84.734741,72.483078 84.417633,70.953003 84.100533,69.422920 
	C84.517563,69.255081 84.934601,69.087250 85.351631,68.919418 
	C86.368248,69.846352 87.384857,70.773293 88.599472,72.111099 
	C88.532448,72.997566 88.267426,73.473167 88.002403,73.948769 
z"/>
<path fill="#F0FAFA" opacity="1.000000" stroke="none" 
	d="
M137.216690,36.407120 
	C136.531464,37.859966 135.567078,39.098965 134.602692,40.337963 
	C134.025299,39.684429 133.447906,39.030895 132.870514,38.377357 
	C134.226181,37.649326 135.581863,36.921295 137.216690,36.407120 
z"/>
<path fill="#F0FAFA" opacity="1.000000" stroke="none" 
	d="
M174.949814,106.972694 
	C176.218842,107.958168 177.153442,108.992714 178.148987,110.321587 
	C177.315399,110.881279 176.420883,111.146652 175.526352,111.412025 
	C175.222702,109.948608 174.919052,108.485191 174.949814,106.972694 
z"/>
<path fill="#F0FAFA" opacity="1.000000" stroke="none" 
	d="
M144.996582,107.565384 
	C141.652573,105.236038 141.494339,103.968002 144.623276,102.017181 
	C144.995071,103.720268 144.995636,105.429253 144.996582,107.565384 
z"/>
<path fill="#E6F1F7" opacity="1.000000" stroke="none" 
	d="
M208.966064,287.913147 
	C210.866852,286.809204 212.767639,285.705261 214.773071,284.286255 
	C215.063690,283.924469 215.249664,283.877716 215.713043,283.907074 
	C216.458023,288.850372 212.093842,287.597778 209.372528,288.679962 
	C208.983398,288.272430 208.974731,288.092804 208.966064,287.913147 
z"/>
<path fill="#45468F" opacity="1.000000" stroke="none" 
	d="
M275.535461,267.675507 
	C274.063629,266.122070 272.130005,264.185760 275.320587,261.914734 
	C275.659607,263.670898 275.675140,265.462524 275.535461,267.675507 
z"/>
<path fill="#D0F0FB" opacity="1.000000" stroke="none" 
	d="
M109.924469,59.291809 
	C111.516060,58.710625 112.975494,58.408978 114.814926,58.141998 
	C113.346909,59.391003 111.498909,60.605339 109.303581,61.832870 
	C109.234947,61.087818 109.513634,60.329582 109.924469,59.291809 
z"/>
<path fill="#E6F1F7" opacity="1.000000" stroke="none" 
	d="
M174.675323,228.024124 
	C173.462082,227.463242 172.377579,226.511383 171.184341,225.262421 
	C174.124237,223.330917 175.360062,224.229965 174.675323,228.024124 
z"/>
<path fill="#F0FAFA" opacity="1.000000" stroke="none" 
	d="
M74.728264,66.969635 
	C73.440506,66.854218 72.516243,66.722191 71.591980,66.590164 
	C71.579269,66.209534 71.566559,65.828903 71.553848,65.448273 
	C73.075882,65.448273 74.597908,65.448273 76.119942,65.448273 
	C75.777206,65.949860 75.434479,66.451447 74.728264,66.969635 
z"/>
<path fill="#D0F0FB" opacity="1.000000" stroke="none" 
	d="
M54.999153,228.609222 
	C53.996147,226.897369 52.980820,224.809753 51.917374,222.346039 
	C51.869259,221.969925 52.207813,221.901947 52.380104,221.911682 
	C53.363869,224.025421 54.175350,226.129456 54.999153,228.609222 
z"/>
<path fill="#F0FAFA" opacity="1.000000" stroke="none" 
	d="
M67.815643,69.810532 
	C67.058510,70.584183 66.336700,71.003532 65.614899,71.422882 
	C65.541786,70.538864 65.468674,69.654846 65.395569,68.770821 
	C66.214035,68.999290 67.032501,69.227760 67.815643,69.810532 
z"/>
<path fill="#E6F1F7" opacity="1.000000" stroke="none" 
	d="
M201.055496,256.841156 
	C200.106522,255.758820 199.157532,254.676468 198.128540,253.294052 
	C200.301331,252.813324 202.213242,253.086136 202.189713,256.416077 
	C202.273224,256.787689 202.145187,256.878296 201.841431,256.894562 
	C201.537674,256.910828 201.055496,256.841156 201.055496,256.841156 
z"/>
<path fill="#2C2986" opacity="1.000000" stroke="none" 
	d="
M294.356140,233.965210 
	C294.601562,232.204147 295.132690,230.223923 296.083923,228.317444 
	C295.883270,230.176147 295.262543,231.961090 294.356140,233.965210 
z"/>
<path fill="#1E54B8" opacity="1.000000" stroke="none" 
	d="
M194.014954,295.900940 
	C194.948853,294.989105 196.207306,294.062012 197.788712,293.383453 
	C198.111664,293.631989 198.085999,294.052551 198.085999,294.052551 
	C198.085999,294.052551 198.027893,294.003265 197.753387,294.048767 
	C197.225113,294.346771 196.971329,294.599304 196.717560,294.851807 
	C195.924881,295.196442 195.132202,295.541046 194.014954,295.900940 
z"/>
<path fill="#45468F" opacity="1.000000" stroke="none" 
	d="
M277.477783,259.168457 
	C278.029297,257.700317 278.872620,256.076141 280.073242,254.453552 
	C279.543579,255.974213 278.656586,257.493317 277.477783,259.168457 
z"/>
<path fill="#D0F0FB" opacity="1.000000" stroke="none" 
	d="
M51.892174,220.051758 
	C51.824993,217.301132 51.863224,214.590469 51.859612,211.428314 
	C51.817776,210.976852 52.130543,210.892654 52.292156,210.891663 
	C52.463768,213.661316 52.473766,216.431946 52.353374,219.645020 
	C52.222984,220.087479 51.997578,220.091721 51.892174,220.051758 
z"/>
<path fill="#45468F" opacity="1.000000" stroke="none" 
	d="
M286.660309,245.151855 
	C286.283875,244.495712 286.182922,243.676727 286.055908,242.444809 
	C286.029785,242.031891 286.007782,242.008896 286.256775,241.920471 
	C286.725067,241.565063 286.944366,241.298080 287.163666,241.031097 
	C287.604340,241.038025 288.045044,241.044952 288.816559,241.049698 
	C288.410187,242.361343 287.673004,243.675171 286.660309,245.151855 
z"/>
<path fill="#1E54B8" opacity="1.000000" stroke="none" 
	d="
M221.934235,280.481995 
	C221.195511,280.881226 220.543350,281.083282 219.550751,281.310913 
	C219.580811,280.285736 219.951324,279.234955 220.564392,277.831604 
	C221.418365,278.101135 222.029770,278.723267 222.702225,279.616699 
	C222.458145,279.912445 222.210663,280.044739 221.934235,280.481995 
z"/>
<path fill="#F0FAFA" opacity="1.000000" stroke="none" 
	d="
M142.999161,156.000732 
	C143.821793,157.165649 144.645264,158.329865 145.468750,159.494064 
	C145.022385,159.741867 144.576019,159.989685 144.129639,160.237488 
	C143.756119,159.060776 143.382599,157.884064 143.005371,156.352814 
	C143.001678,155.998276 143.000000,156.000000 142.999161,156.000732 
z"/>
<path fill="#6B62D2" opacity="1.000000" stroke="none" 
	d="
M149.222717,38.340218 
	C150.416595,37.584370 151.537994,37.058071 152.833588,36.269348 
	C153.007782,36.006927 153.000061,36.000450 153.259552,36.020721 
	C153.688828,36.063637 153.858597,36.086281 154.028381,36.108925 
	C152.627670,37.087406 151.226944,38.065887 149.455811,39.045586 
	C149.085403,39.046803 149.150238,38.569759 149.222717,38.340218 
z"/>
<path fill="#D8F3FD" opacity="1.000000" stroke="none" 
	d="
M137.505249,154.632050 
	C137.320541,155.491882 136.803589,156.435272 136.143951,157.674271 
	C135.487076,157.948334 134.972870,157.926804 134.085373,157.798370 
	C134.865707,156.699493 136.019348,155.707550 137.505249,154.632050 
z"/>
<path fill="#F0FAFA" opacity="1.000000" stroke="none" 
	d="
M154.152618,35.986084 
	C153.858597,36.086281 153.688828,36.063637 153.262650,36.024681 
	C153.898987,35.210339 154.791718,34.412319 155.885376,33.904388 
	C155.698669,34.569160 155.311066,34.943832 154.769409,35.547604 
	C154.615387,35.776699 154.276855,35.863243 154.152618,35.986084 
z"/>
<path fill="#E2F0FA" opacity="1.000000" stroke="none" 
	d="
M125.033005,176.568726 
	C123.801514,175.775146 122.548126,174.671066 121.160629,173.279175 
	C121.823090,173.244202 122.619652,173.497070 123.708107,173.874969 
	C124.000000,174.000000 123.995682,173.995850 123.995682,173.995850 
	C124.334152,174.749969 124.672623,175.504089 125.033005,176.568726 
z"/>
<path fill="#45468F" opacity="1.000000" stroke="none" 
	d="
M282.144348,252.226807 
	C282.509460,251.006119 283.148468,249.655991 284.131348,248.261047 
	C283.789612,249.509949 283.103912,250.803665 282.144348,252.226807 
z"/>
<path fill="#F0FAFA" opacity="1.000000" stroke="none" 
	d="
M145.074707,40.243088 
	C144.659225,40.900681 144.197479,41.180782 143.464752,41.492325 
	C143.432037,40.546143 143.670288,39.568523 143.908524,38.590904 
	C144.281830,39.015800 144.655136,39.440697 145.074707,40.243088 
z"/>
<path fill="#F0FAFA" opacity="1.000000" stroke="none" 
	d="
M102.191994,50.795082 
	C101.947281,50.235134 102.000847,49.736370 102.054405,49.237602 
	C102.502602,49.350971 102.950806,49.464336 103.399002,49.577705 
	C103.096092,50.003891 102.793175,50.430080 102.191994,50.795082 
z"/>
<path fill="#D0F0FB" opacity="1.000000" stroke="none" 
	d="
M52.527405,201.769653 
	C51.917847,201.255997 51.476166,200.451935 51.035004,199.338654 
	C51.239346,199.013535 51.443165,198.997635 51.953922,198.977509 
	C52.405666,199.808609 52.550476,200.643936 52.527405,201.769653 
z"/>
<path fill="#1E54B8" opacity="1.000000" stroke="none" 
	d="
M218.959793,281.211823 
	C218.966980,281.661591 218.642075,282.032745 218.169647,282.612366 
	C217.507385,283.111725 216.992630,283.402649 216.181229,283.626953 
	C216.798935,282.751282 217.713318,281.942230 218.959793,281.211823 
z"/>
<path fill="#E6F1F7" opacity="1.000000" stroke="none" 
	d="
M176.998260,230.635773 
	C176.250916,230.351593 175.509598,229.686050 174.672882,228.734741 
	C175.386414,229.050781 176.195358,229.652588 176.998260,230.635773 
z"/>
<path fill="#45468F" opacity="1.000000" stroke="none" 
	d="
M261.070618,299.269775 
	C261.658081,299.824127 262.233063,300.695221 262.709595,301.919647 
	C262.093445,301.377472 261.575775,300.481995 261.070618,299.269775 
z"/>
<path fill="#CBE4F7" opacity="1.000000" stroke="none" 
	d="
M208.645874,287.964935 
	C208.974731,288.092804 208.983398,288.272430 208.993591,288.721771 
	C208.138855,289.307281 207.282578,289.623138 206.066711,289.876953 
	C206.579971,289.215546 207.452820,288.616119 208.645874,287.964935 
z"/>
<path fill="#D0F0FB" opacity="1.000000" stroke="none" 
	d="
M128.989014,280.544495 
	C129.623703,280.541199 130.324158,280.860809 131.139511,281.453857 
	C130.521194,281.440643 129.787979,281.154022 128.989014,280.544495 
z"/>
<path fill="#D0F0FB" opacity="1.000000" stroke="none" 
	d="
M62.374069,240.981140 
	C62.034946,240.511154 62.018326,240.063583 62.026199,239.280579 
	C62.634342,239.438385 63.217979,239.931641 63.894897,240.710007 
	C63.557640,240.997940 63.127102,241.000748 62.374069,240.981140 
z"/>
<path fill="#F0FAFA" opacity="1.000000" stroke="none" 
	d="
M131.972137,158.931732 
	C131.972137,158.931732 132.117416,158.682144 132.651337,158.778122 
	C133.450256,158.908051 133.715271,158.942017 133.980270,158.975967 
	C133.524429,159.618073 133.068588,160.260178 132.300415,160.594528 
	C131.982773,159.835083 131.977448,159.383408 131.972137,158.931732 
z"/>
<path fill="#E6F1F7" opacity="1.000000" stroke="none" 
	d="
M163.647736,215.009766 
	C163.967972,215.503647 163.957214,215.992233 163.888062,216.844025 
	C163.316864,216.870163 162.804047,216.533112 162.153503,215.753326 
	C162.015778,215.310593 161.992157,215.014542 161.992157,215.014542 
	C162.433685,215.011185 162.875229,215.007828 163.647736,215.009766 
z"/>
<path fill="#F0FAFA" opacity="1.000000" stroke="none" 
	d="
M130.044205,41.397758 
	C130.284943,41.792736 130.283066,42.186031 130.252106,42.577026 
	C130.251175,42.588799 129.946320,42.576515 129.783173,42.575451 
	C129.787872,42.182213 129.792587,41.788975 130.044205,41.397758 
z"/>
<path fill="#45468F" opacity="1.000000" stroke="none" 
	d="
M248.344971,270.178406 
	C248.843475,270.563324 249.320587,271.262787 249.680328,272.299652 
	C249.149841,271.922363 248.736725,271.207642 248.344971,270.178406 
z"/>
<path fill="#D0F0FB" opacity="1.000000" stroke="none" 
	d="
M88.321983,73.943245 
	C88.267426,73.473167 88.532448,72.997566 88.912018,72.273636 
	C89.026573,72.025299 89.500946,71.990341 89.736298,71.957207 
	C90.177155,71.948105 90.382660,71.972130 90.893524,72.053497 
	C90.346443,72.719795 89.494003,73.328758 88.321983,73.943245 
z"/>
<path fill="#45468F" opacity="1.000000" stroke="none" 
	d="
M247.032852,264.020355 
	C246.974808,264.289032 246.916763,264.557709 246.704285,265.209351 
	C246.060257,264.618011 245.570663,263.643768 245.063324,262.338806 
	C245.214828,262.022583 245.384079,262.037048 245.826538,262.362000 
	C246.410782,263.121796 246.721817,263.571075 247.032852,264.020355 
z"/>
<path fill="#D8F3FD" opacity="1.000000" stroke="none" 
	d="
M131.659103,158.975037 
	C131.977448,159.383408 131.982773,159.835083 131.974457,160.624695 
	C131.439285,160.957870 130.917709,160.953140 130.009918,160.877716 
	C130.197815,160.210815 130.771942,159.614578 131.659103,158.975037 
z"/>
<path fill="#45468F" opacity="1.000000" stroke="none" 
	d="
M285.142517,247.430359 
	C285.188568,246.843613 285.477356,246.113693 286.073792,245.351471 
	C286.049408,245.975174 285.717316,246.631180 285.142517,247.430359 
z"/>
<path fill="#45468F" opacity="1.000000" stroke="none" 
	d="
M262.657654,302.622406 
	C263.084656,302.998230 263.540680,303.691223 263.956055,304.733734 
	C263.505829,304.368683 263.096283,303.654144 262.657654,302.622406 
z"/>
<path fill="#E2F0FA" opacity="1.000000" stroke="none" 
	d="
M127.267273,162.964844 
	C127.462608,162.429138 127.972397,161.894547 128.758469,161.290192 
	C128.550400,161.802246 128.066071,162.384094 127.267273,162.964844 
z"/>
<path fill="#E2F0FA" opacity="1.000000" stroke="none" 
	d="
M124.002090,174.002197 
	C124.154678,173.554550 124.305168,173.104706 124.455658,172.654877 
	C124.733185,172.785675 125.010704,172.916489 125.288231,173.047287 
	C125.026245,173.350403 124.764259,173.653534 124.248978,173.976257 
	C123.995682,173.995850 124.000000,174.000000 124.002090,174.002197 
z"/>
<path fill="#E2F0FA" opacity="1.000000" stroke="none" 
	d="
M130.965179,182.695663 
	C130.369736,182.547943 129.756744,182.069763 129.062332,181.303833 
	C129.636490,181.465805 130.292068,181.915497 130.965179,182.695663 
z"/>
<path fill="#E6F1F7" opacity="1.000000" stroke="none" 
	d="
M224.359070,283.251892 
	C224.373856,283.007019 224.503738,282.874023 224.633606,282.741028 
	C224.580444,282.948608 224.527298,283.156189 224.359070,283.251892 
z"/>
<path fill="#D0F0FB" opacity="1.000000" stroke="none" 
	d="
M85.071419,74.330322 
	C85.571815,74.034111 86.091782,74.055069 86.999039,74.141510 
	C86.886314,74.556183 86.386307,74.905380 85.575729,75.256622 
	C85.207108,75.054939 85.149048,74.851204 85.071419,74.330322 
z"/>
<path fill="#F0FAFA" opacity="1.000000" stroke="none" 
	d="
M86.256744,65.643311 
	C86.007912,65.628540 85.872391,65.495705 85.736877,65.362869 
	C85.947937,65.416992 86.158997,65.471115 86.256744,65.643311 
z"/>
<path fill="#CBE4F7" opacity="1.000000" stroke="none" 
	d="
M202.251740,291.970917 
	C202.392899,291.580261 202.852402,291.221954 203.612259,290.855652 
	C203.465118,291.232880 203.017609,291.618073 202.251740,291.970917 
z"/>
<path fill="#CBE4F7" opacity="1.000000" stroke="none" 
	d="
M200.115250,292.103790 
	C200.532471,292.047150 200.937119,291.972107 201.652115,291.910461 
	C201.563766,292.312897 201.165085,292.701874 200.411804,293.079468 
	C200.057190,293.068024 199.917465,292.912567 199.983322,292.712769 
	C200.049179,292.512939 200.130051,292.099976 200.130051,292.099976 
	C200.130051,292.099976 200.102692,292.085358 200.115250,292.103790 
z"/>
<path fill="#CBE4F7" opacity="1.000000" stroke="none" 
	d="
M198.381927,294.060089 
	C198.085999,294.052551 198.111664,293.631989 198.136871,293.422974 
	C198.162094,293.213989 198.127563,293.146698 198.421875,293.158875 
	C199.116608,293.084900 199.517029,292.998749 199.917465,292.912567 
	C199.917465,292.912567 200.057190,293.068024 200.126938,293.148132 
	C199.690414,293.508026 199.184143,293.787811 198.381927,294.060089 
z"/>
<path fill="#45468F" opacity="1.000000" stroke="none" 
	d="
M249.784943,273.357483 
	C250.166763,273.563751 250.540466,274.104584 250.848175,274.993164 
	C250.447067,274.791260 250.111938,274.241638 249.784943,273.357483 
z"/>
<path fill="#F0FAFA" opacity="1.000000" stroke="none" 
	d="
M144.952271,141.726013 
	C144.647003,141.554657 144.332932,141.081680 143.998291,140.311432 
	C144.299652,140.484222 144.621567,140.954315 144.952271,141.726013 
z"/>
<path fill="#E6F1F7" opacity="1.000000" stroke="none" 
	d="
M168.779480,222.545334 
	C168.925430,222.218033 169.136566,222.152420 169.676529,222.042862 
	C170.027527,222.395889 170.049728,222.792831 170.075226,223.487885 
	C169.667252,223.459656 169.255951,223.133347 168.779480,222.545334 
z"/>
<path fill="#CBE4F7" opacity="1.000000" stroke="none" 
	d="
M204.114838,290.878510 
	C204.084198,290.641266 204.300888,290.403198 204.772095,290.177887 
	C204.925598,290.536133 204.704132,290.765137 204.114838,290.878510 
z"/>
<path fill="#D0F0FB" opacity="1.000000" stroke="none" 
	d="
M84.946411,75.233376 
	C85.006897,75.500092 84.791359,75.769653 84.307129,76.062180 
	C84.249084,75.802170 84.459740,75.519188 84.946411,75.233376 
z"/>
<path fill="#45468F" opacity="1.000000" stroke="none" 
	d="
M263.897705,305.364746 
	C264.159241,305.383942 264.411865,305.704224 264.595001,306.336334 
	C264.313263,306.320740 264.101013,305.993286 263.897705,305.364746 
z"/>
<path fill="#CBE4F7" opacity="1.000000" stroke="none" 
	d="
M196.995514,294.846558 
	C196.971329,294.599304 197.225113,294.346771 197.756592,294.086731 
	C197.780685,294.333252 197.527069,294.587311 196.995514,294.846558 
z"/>
<path fill="#F0FAFA" opacity="1.000000" stroke="none" 
	d="
M157.854248,33.074348 
	C157.967499,33.330608 157.778229,33.535881 157.271362,33.650085 
	C157.191757,33.403797 157.391083,33.225246 157.854248,33.074348 
z"/>
<path fill="#6B62D2" opacity="1.000000" stroke="none" 
	d="
M178.860626,27.889338 
	C178.966904,28.016922 178.705612,28.097244 178.705612,28.097244 
	C178.705612,28.097244 178.434311,28.063812 178.315216,27.998093 
	C178.322540,27.680681 178.508621,27.623808 178.860626,27.889338 
z"/>
<path fill="#E2F0FA" opacity="1.000000" stroke="none" 
	d="
M128.898483,180.780884 
	C128.690475,180.857697 128.395081,180.694702 128.030731,180.277924 
	C128.244873,180.196442 128.528000,180.368774 128.898483,180.780884 
z"/>
<path fill="#D0F0FB" opacity="1.000000" stroke="none" 
	d="
M64.106873,241.232208 
	C64.317841,241.148987 64.625763,241.289841 64.974815,241.693604 
	C64.673622,241.906006 64.402908,241.739273 64.106873,241.232208 
z"/>
<path fill="#E9F1F7" opacity="1.000000" stroke="none" 
	d="
M161.833618,214.968994 
	C161.992157,215.014542 162.015778,215.310593 162.043167,215.456314 
	C161.768417,215.661285 161.538315,215.558823 161.363297,215.095062 
	C161.346344,214.895493 161.675079,214.923431 161.833618,214.968994 
z"/>
<path fill="#E2F0FA" opacity="1.000000" stroke="none" 
	d="
M132.856705,184.873840 
	C132.617920,184.949371 132.316696,184.764160 131.973083,184.307526 
	C132.218552,184.228439 132.506409,184.420776 132.856705,184.873840 
z"/>
<path fill="#45468F" opacity="1.000000" stroke="none" 
	d="
M280.746979,254.225464 
	C280.599701,254.005142 280.681335,253.664703 281.033081,253.240814 
	C281.194092,253.473358 281.085022,253.789337 280.746979,254.225464 
z"/>
<path fill="#E2F0FA" opacity="1.000000" stroke="none" 
	d="
M131.891754,183.819702 
	C131.666885,183.893753 131.373215,183.715988 131.025818,183.276276 
	C131.255692,183.198853 131.539322,183.383362 131.891754,183.819702 
z"/>
<path fill="#F0FAFA" opacity="1.000000" stroke="none" 
	d="
M179.170135,111.984024 
	C179.398972,111.924812 179.700012,112.156540 180.098984,112.662979 
	C179.878723,112.716774 179.560516,112.495865 179.170135,111.984024 
z"/>
<path fill="#45468F" opacity="1.000000" stroke="none" 
	d="
M276.016815,261.367920 
	C275.909424,261.319244 275.974182,261.303650 275.955688,261.304626 
	C275.937195,261.305634 276.124207,261.416565 276.016815,261.367920 
z"/>
<path fill="#E2F0FA" opacity="1.000000" stroke="none" 
	d="
M127.892334,179.798157 
	C127.682281,179.870850 127.388000,179.703781 127.033813,179.279541 
	C127.251968,179.201050 127.530037,179.379715 127.892334,179.798157 
z"/>
<path fill="#E2F0FA" opacity="1.000000" stroke="none" 
	d="
M125.954239,177.690308 
	C125.663445,177.913696 125.389030,177.757523 125.166229,177.199707 
	C125.453133,177.017914 125.704063,177.188797 125.954239,177.690308 
z"/>
<path fill="#45468F" opacity="1.000000" stroke="none" 
	d="
M246.759796,266.345459 
	C246.992371,266.301544 247.219025,266.528473 247.291351,266.877441 
	C247.009308,266.871735 246.881592,266.744049 246.759796,266.345459 
z"/>
<path fill="#D8F3FD" opacity="1.000000" stroke="none" 
	d="
M133.937012,158.652405 
	C133.715271,158.942017 133.450256,158.908051 132.795685,158.773849 
	C132.644043,158.390213 132.881989,158.106827 133.396820,157.768799 
	C133.747055,157.919083 133.820419,158.123978 133.937012,158.652405 
z"/>
<path fill="#45468F" opacity="1.000000" stroke="none" 
	d="
M248.034210,269.397827 
	C247.993515,269.478485 248.034164,269.350891 248.063782,269.328918 
	C248.093384,269.306976 248.074905,269.317200 248.034210,269.397827 
z"/>
<path fill="#D8F3FD" opacity="1.000000" stroke="none" 
	d="
M142.931534,151.791336 
	C142.768402,151.952484 142.546875,151.916412 142.008057,151.763550 
	C141.690750,151.646759 141.871414,151.203384 142.092865,151.112335 
	C142.589996,151.125015 142.776276,151.315964 142.931534,151.791336 
z"/>
<path fill="#F0FAFA" opacity="1.000000" stroke="none" 
	d="
M138.998337,97.001221 
	C138.563370,98.208282 138.128418,99.415352 137.948685,99.914162 
	C135.862396,99.523796 134.288254,99.229263 132.241211,98.745804 
	C131.476379,98.371399 131.184433,98.185913 130.892502,98.000427 
	C130.892502,98.000420 130.678741,97.586288 130.957443,97.204025 
	C130.606400,95.541122 129.976669,94.260468 129.346924,92.979820 
	C128.522522,89.989342 127.698135,86.998863 126.937149,83.185486 
	C126.648483,79.587898 126.296432,76.813217 125.944382,74.038528 
	C126.627960,75.427208 127.311546,76.815880 128.034241,78.967667 
	C128.381622,81.153549 128.689896,82.576317 128.997620,84.405151 
	C129.888443,86.747803 130.425385,88.983063 131.749832,90.554665 
	C134.039871,93.272064 134.935623,91.694969 135.248138,89.171417 
	C135.663361,89.891518 135.833511,90.445396 136.042358,91.371536 
	C137.053635,93.496353 138.026199,95.248917 138.999390,97.000732 
	C139.000000,97.000000 138.998337,97.001221 138.998337,97.001221 
z"/>
<path fill="#D0F0FB" opacity="1.000000" stroke="none" 
	d="
M125.688583,73.791641 
	C126.296432,76.813217 126.648483,79.587898 126.943390,82.795631 
	C125.467934,78.383827 124.049629,73.538986 122.955612,68.432518 
	C123.823265,68.788429 124.366638,69.405952 124.910019,70.023483 
	C125.084274,71.197235 125.258530,72.370995 125.688583,73.791641 
z"/>
<path fill="#F0FAFA" opacity="1.000000" stroke="none" 
	d="
M125.205093,69.827110 
	C124.366638,69.405952 123.823265,68.788429 123.048378,68.079979 
	C122.566849,67.253304 122.316826,66.517540 122.344872,65.400444 
	C122.789749,65.010323 122.956558,65.001534 123.123367,64.992737 
	C124.940865,64.656105 126.758362,64.319481 129.455048,63.820011 
	C128.208527,65.651466 126.854347,67.641106 125.205093,69.827110 
z"/>
<path fill="#D8F3FD" opacity="1.000000" stroke="none" 
	d="
M135.005402,109.619102 
	C135.346191,112.081024 135.676407,114.169777 135.975479,116.661552 
	C134.695389,112.948868 133.446426,108.833168 132.270020,104.329849 
	C132.707352,103.959763 133.072113,103.977295 133.712921,104.349014 
	C134.307999,105.470779 134.627029,106.238358 134.946075,107.005936 
	C134.962326,107.752602 134.978577,108.499268 135.005402,109.619102 
z"/>
<path fill="#D0F0FB" opacity="1.000000" stroke="none" 
	d="
M115.474434,58.197422 
	C116.491135,57.261860 117.855759,56.306973 119.220383,55.352089 
	C119.854156,57.212368 120.487923,59.072651 121.129265,61.323837 
	C120.200951,60.257774 119.265060,58.800808 118.098473,57.575584 
	C117.185966,57.930920 116.504166,58.054512 115.474434,58.197422 
z"/>
<path fill="#D8F3FD" opacity="1.000000" stroke="none" 
	d="
M137.817535,124.474808 
	C138.864304,127.560036 139.903076,131.054413 140.880875,134.988647 
	C139.816452,131.913666 138.813004,128.398804 137.817535,124.474808 
z"/>
<path fill="#D0F0FB" opacity="1.000000" stroke="none" 
	d="
M61.972221,238.633179 
	C58.582474,239.257690 58.286716,236.730423 57.860054,233.938965 
	C59.179840,235.164978 60.534657,236.740753 61.972221,238.633179 
z"/>
<path fill="#D0F0FB" opacity="1.000000" stroke="none" 
	d="
M83.222198,253.514282 
	C81.700119,252.994278 79.991386,252.185898 78.204865,251.017517 
	C79.763222,251.513641 81.399384,252.369781 83.222198,253.514282 
z"/>
<path fill="#D8F3FD" opacity="1.000000" stroke="none" 
	d="
M129.305893,93.299469 
	C129.976669,94.260468 130.606400,95.541122 130.949387,96.971146 
	C130.196716,95.953392 129.730789,94.786255 129.305893,93.299469 
z"/>
<path fill="#D0F0FB" opacity="1.000000" stroke="none" 
	d="
M123.091400,64.621613 
	C122.956558,65.001534 122.789749,65.010323 122.372665,65.008385 
	C121.785828,64.193405 121.449287,63.389156 121.155350,62.251019 
	C121.581383,61.943588 121.964798,61.970039 122.634735,62.009094 
	C122.967316,62.764629 123.013374,63.507557 123.091400,64.621613 
z"/>
<path fill="#D8F3FD" opacity="1.000000" stroke="none" 
	d="
M135.907623,117.386902 
	C136.266220,117.899513 136.606110,118.771057 136.890701,120.023003 
	C136.519913,119.517548 136.204422,118.631691 135.907623,117.386902 
z"/>
<path fill="#D8F3FD" opacity="1.000000" stroke="none" 
	d="
M136.953583,121.338776 
	C137.311096,121.809776 137.640289,122.621475 137.918915,123.783554 
	C137.554001,123.315765 137.239624,122.497620 136.953583,121.338776 
z"/>
<path fill="#D8F3FD" opacity="1.000000" stroke="none" 
	d="
M139.702515,152.947540 
	C139.634476,153.286057 139.302277,153.633026 138.721680,154.017181 
	C138.794968,153.688263 139.116669,153.322144 139.702515,152.947540 
z"/>
<path fill="#D8F3FD" opacity="1.000000" stroke="none" 
	d="
M141.456116,151.672974 
	C141.367706,152.071335 140.982758,152.510101 140.272644,152.950745 
	C140.351501,152.539551 140.755539,152.126450 141.456116,151.672974 
z"/>
<path fill="#D8F3FD" opacity="1.000000" stroke="none" 
	d="
M130.841080,98.348099 
	C131.184433,98.185913 131.476379,98.371399 131.899796,98.786110 
	C131.982544,99.281380 131.933807,99.547440 131.746735,100.197235 
	C131.335480,99.952568 131.062561,99.324165 130.841080,98.348099 
z"/>
<path fill="#D0F0FB" opacity="1.000000" stroke="none" 
	d="
M57.381863,232.833466 
	C57.333439,232.982422 57.017738,232.603409 56.982536,232.484879 
	C57.197281,232.337769 57.358265,232.443817 57.381863,232.833466 
z"/>
<path fill="#D0F0FB" opacity="1.000000" stroke="none" 
	d="
M56.136589,230.723633 
	C56.028522,230.720078 55.997005,230.651459 55.992760,230.634644 
	C55.988510,230.617813 56.244659,230.727203 56.136589,230.723633 
z"/>
<path fill="#D0F0FB" opacity="1.000000" stroke="none" 
	d="
M77.333084,249.893066 
	C77.254364,249.955627 77.260109,249.929916 77.264282,249.950302 
	C77.268448,249.970688 77.411812,249.830521 77.333084,249.893066 
z"/>
<path fill="#0446C2" opacity="1.000000" stroke="none" 
	d="
M118.096786,170.763306 
	C118.326462,170.741684 118.622665,171.050842 118.997452,171.684296 
	C118.771797,171.703735 118.467560,171.398911 118.096786,170.763306 
z"/>
<path fill="#D8F3FD" opacity="1.000000" stroke="none" 
	d="
M140.861710,136.271484 
	C141.067062,136.265366 141.238464,136.519791 141.251938,136.879700 
	C141.005249,136.834137 140.916504,136.683105 140.861710,136.271484 
z"/>
<path fill="#675ED7" opacity="1.000000" stroke="none" 
	d="
M232.487396,178.016724 
	C232.145004,177.233917 232.130447,176.474579 232.131104,175.334839 
	C232.966599,175.586517 233.786865,176.218582 234.607147,176.850647 
	C234.009842,177.247162 233.412552,177.643677 232.487396,178.016724 
z"/>
<path fill="#2525A3" opacity="1.000000" stroke="none" 
	d="
M247.274963,263.844604 
	C246.721817,263.571075 246.410782,263.121796 246.079651,262.391174 
	C246.486511,262.074188 246.913498,262.038574 247.661942,261.990906 
	C247.827957,262.542145 247.672516,263.105499 247.274963,263.844604 
z"/>
<path fill="#1E54B8" opacity="1.000000" stroke="none" 
	d="
M205.969513,262.444916 
	C207.684082,263.737976 209.401321,265.398560 211.225815,267.365540 
	C209.546112,266.052063 207.759171,264.432251 205.969513,262.444916 
z"/>
<path fill="#1E54B8" opacity="1.000000" stroke="none" 
	d="
M190.945190,297.040283 
	C190.085968,298.002167 189.039612,298.650635 187.690094,299.343994 
	C187.102356,296.718109 187.938095,295.466064 190.945190,297.040283 
z"/>
<path fill="#1E54B8" opacity="1.000000" stroke="none" 
	d="
M201.041595,257.225311 
	C201.055496,256.841156 201.537674,256.910828 201.779236,256.942322 
	C202.931717,258.123718 203.842651,259.273560 204.842896,260.726257 
	C203.630707,259.889191 202.329193,258.749329 201.041595,257.225311 
z"/>
<path fill="#1E54B8" opacity="1.000000" stroke="none" 
	d="
M217.166458,274.127502 
	C218.278931,274.730377 219.344894,275.698273 220.498810,276.954224 
	C219.431152,276.325714 218.275558,275.409119 217.166458,274.127502 
z"/>
<path fill="#1E54B8" opacity="1.000000" stroke="none" 
	d="
M211.254303,268.040466 
	C212.240570,268.515930 213.147919,269.360962 214.133850,270.513641 
	C213.200104,270.017517 212.187759,269.213776 211.254303,268.040466 
z"/>
<path fill="#E6F1F7" opacity="1.000000" stroke="none" 
	d="
M166.330490,220.186310 
	C167.109070,220.465469 167.972855,221.033386 168.783783,221.952576 
	C167.959183,221.694260 167.187439,221.084656 166.330490,220.186310 
z"/>
<path fill="#1E54B8" opacity="1.000000" stroke="none" 
	d="
M214.157471,271.149658 
	C214.787781,271.286377 215.395294,271.774261 216.087006,272.548218 
	C215.492371,272.389832 214.813522,271.945312 214.157471,271.149658 
z"/>
<path fill="#1E54B8" opacity="1.000000" stroke="none" 
	d="
M199.983322,292.712769 
	C199.517029,292.998749 199.116608,293.084900 198.408691,293.193359 
	C198.560394,292.829834 199.019577,292.443939 199.804413,292.079041 
	C200.130051,292.099976 200.049179,292.512939 199.983322,292.712769 
z"/>
<path fill="#1E54B8" opacity="1.000000" stroke="none" 
	d="
M187.040192,299.321838 
	C187.083450,299.590942 186.843979,299.841248 186.335480,300.113647 
	C186.296768,299.858154 186.527100,299.580597 187.040192,299.321838 
z"/>
<path fill="#E6F1F7" opacity="1.000000" stroke="none" 
	d="
M165.400116,219.221527 
	C165.623260,219.088776 165.801071,219.218979 166.000687,219.568481 
	C165.770706,219.791580 165.548141,219.690475 165.400116,219.221527 
z"/>
<path fill="#E6F1F7" opacity="1.000000" stroke="none" 
	d="
M163.854202,217.414185 
	C164.099670,217.334122 164.425476,217.532822 164.817123,218.021301 
	C164.566818,218.105026 164.250687,217.898987 163.854202,217.414185 
z"/>
<path fill="#1E54B8" opacity="1.000000" stroke="none" 
	d="
M216.201447,273.087524 
	C216.445084,272.977722 216.760361,273.139252 217.159271,273.562256 
	C216.919647,273.668732 216.596375,273.513794 216.201447,273.087524 
z"/>
<path fill="#6B62D2" opacity="1.000000" stroke="none" 
	d="
M145.987915,71.914101 
	C144.871262,70.636017 143.754593,69.357941 142.224976,67.626892 
	C140.924606,66.245239 140.037201,65.316566 139.222626,64.085144 
	C138.819077,62.876717 138.342697,61.971035 137.866318,61.065353 
	C139.343124,60.700642 140.819916,60.335930 143.142960,59.762226 
	C142.238617,61.860252 141.751038,62.991394 140.988281,64.760918 
	C142.586517,64.478508 143.688644,64.283760 143.716965,64.278755 
	C146.293060,68.418236 148.682053,72.257050 151.079651,76.500427 
	C151.088287,76.904991 150.999039,77.000885 150.720016,76.847641 
	C149.290756,75.471886 148.140533,74.249382 146.990295,73.026878 
	C146.990295,73.026878 147.003448,72.998665 146.917145,72.749619 
	C146.549881,72.305077 146.268890,72.109589 145.987915,71.914101 
z"/>
<path fill="#EDEEF4" opacity="1.000000" stroke="none" 
	d="
M137.653168,60.957031 
	C138.342697,61.971035 138.819077,62.876717 139.178696,64.484070 
	C139.041199,65.451485 139.020477,65.717216 138.999741,65.982956 
	C135.301483,63.806541 131.282349,61.908249 131.355713,56.356728 
	C131.932632,55.926674 132.162430,55.903458 132.392212,55.880238 
	C132.697235,55.855717 132.988663,55.907593 133.558975,56.340263 
	C134.242905,57.022743 134.634354,57.400818 135.025803,57.778893 
	C135.025803,57.778893 135.183212,58.052235 135.434784,58.409580 
	C136.119797,59.185558 136.553238,59.604191 136.986679,60.022827 
	C137.041138,60.351181 137.192245,60.626476 137.653168,60.957031 
z"/>
<path fill="#6B62D2" opacity="1.000000" stroke="none" 
	d="
M132.003220,48.449043 
	C134.479111,47.059513 136.760406,45.905899 139.392792,44.703293 
	C137.327896,47.633156 134.911911,50.612007 131.978485,53.773678 
	C131.461060,53.956493 130.983292,53.866531 130.952637,53.786270 
	C130.921967,53.706013 130.760925,53.646137 130.760925,53.646137 
	C130.290665,52.949471 129.820419,52.252800 129.207184,51.276085 
	C129.979004,50.225681 130.893799,49.455318 132.003220,48.449043 
z"/>
<path fill="#625AD3" opacity="1.000000" stroke="none" 
	d="
M167.956467,96.774094 
	C165.712997,94.642235 163.485855,92.131340 161.165710,89.300812 
	C163.372726,91.452469 165.672760,93.923767 167.956467,96.774094 
z"/>
<path fill="#6B62D2" opacity="1.000000" stroke="none" 
	d="
M155.071426,82.871529 
	C154.702011,82.347542 154.332596,81.823547 153.631561,80.856018 
	C152.532974,79.275276 151.766006,78.138077 150.999039,77.000885 
	C150.999039,77.000885 151.088287,76.904991 151.132278,76.854584 
	C153.012146,78.664200 154.848022,80.524216 156.699585,82.837341 
	C156.715256,83.290436 156.427307,83.584106 156.207260,83.451324 
	C155.681946,83.169540 155.376694,83.020531 155.071426,82.871529 
z"/>
<path fill="#625AD3" opacity="1.000000" stroke="none" 
	d="
M164.079437,86.099686 
	C164.831314,85.529305 165.595703,85.310577 166.360077,85.091843 
	C166.422409,85.829460 166.484726,86.567062 166.547058,87.304672 
	C165.728683,87.020226 164.910309,86.735771 164.079437,86.099686 
z"/>
<path fill="#6B62D2" opacity="1.000000" stroke="none" 
	d="
M156.859238,83.143616 
	C157.444794,82.999596 157.886368,83.002396 158.664001,83.002640 
	C159.000046,83.000092 159.010834,83.010048 159.010834,83.010048 
	C159.028152,84.036415 159.045456,85.062790 159.075867,86.503204 
	C159.088959,86.917259 159.020340,86.986229 158.791855,86.778397 
	C157.851349,85.575081 157.139328,84.579597 156.427307,83.584106 
	C156.427307,83.584106 156.715256,83.290436 156.859238,83.143616 
z"/>
<path fill="#F0FAFA" opacity="1.000000" stroke="none" 
	d="
M130.437103,53.788666 
	C130.760925,53.646137 130.921967,53.706013 131.050568,54.034439 
	C131.453888,54.575565 131.728607,54.788265 132.003342,55.000965 
	C132.116821,55.125999 132.230286,55.251038 132.367981,55.628155 
	C132.162430,55.903458 131.932632,55.926674 131.357452,55.975128 
	C130.712463,55.310646 130.412872,54.620922 130.437103,53.788666 
z"/>
<path fill="#675ED7" opacity="1.000000" stroke="none" 
	d="
M214.999695,149.999695 
	C215.301590,149.491318 215.603790,148.983231 215.905975,148.475128 
	C216.114090,148.655579 216.322220,148.836014 216.530334,149.016449 
	C216.208817,149.319565 215.887299,149.622681 215.283188,149.963196 
	C215.000610,150.000610 215.000000,150.000000 214.999695,149.999695 
z"/>
<path fill="#6B62D2" opacity="1.000000" stroke="none" 
	d="
M158.995132,82.994766 
	C159.299286,82.485199 159.608353,81.980949 159.917419,81.476707 
	C160.124344,81.657509 160.331268,81.838318 160.538193,82.019127 
	C160.216400,82.320084 159.894608,82.621040 159.291824,82.966026 
	C159.010834,83.010048 159.000046,83.000092 158.995132,82.994766 
z"/>
<path fill="#6B62D2" opacity="1.000000" stroke="none" 
	d="
M136.954681,59.685326 
	C136.553238,59.604191 136.119797,59.185558 135.578033,58.475521 
	C135.954056,58.572021 136.438370,58.959923 136.954681,59.685326 
z"/>
<path fill="#6B62D2" opacity="1.000000" stroke="none" 
	d="
M134.989822,57.485161 
	C134.634354,57.400818 134.242905,57.022743 133.780853,56.369625 
	C134.124771,56.460197 134.539307,56.825813 134.989822,57.485161 
z"/>
<path fill="#6B62D2" opacity="1.000000" stroke="none" 
	d="
M159.924042,87.573639 
	C160.026993,87.760521 159.606903,87.800934 159.396835,87.812576 
	C159.186768,87.824226 159.161804,87.850555 159.161469,87.623901 
	C159.161133,87.397247 159.020340,86.986229 159.020340,86.986229 
	C159.020340,86.986229 159.088959,86.917259 159.125122,86.884644 
	C159.424393,86.977013 159.644318,87.155251 159.924042,87.573639 
z"/>
<path fill="#EDEEF4" opacity="1.000000" stroke="none" 
	d="
M132.003784,54.754333 
	C131.728607,54.788265 131.453888,54.575565 131.081223,54.114700 
	C130.983292,53.866531 131.461060,53.956493 131.702148,53.987362 
	C131.943222,54.018230 132.004242,54.507702 132.003784,54.754333 
z"/>
<path fill="#06B8F2" opacity="1.000000" stroke="none" 
	d="
M57.999847,129.003326 
	C57.999847,145.089523 57.999847,160.676529 57.999847,176.263519 
	C57.596684,176.260147 57.193523,176.256775 56.790359,176.253387 
	C56.790359,153.074295 56.790359,129.895203 56.790359,106.716103 
	C57.475567,106.724892 58.160778,106.733673 58.845985,106.742462 
	C58.564159,110.171608 58.160728,113.596237 58.032978,117.031113 
	C57.890926,120.850586 58.000065,124.679390 57.999847,129.003326 
z"/>
<path fill="#D0F0FB" opacity="1.000000" stroke="none" 
	d="
M52.968712,102.659790 
	C53.755859,100.069969 54.740192,97.175728 56.097275,94.228348 
	C55.368649,96.901932 54.267269,99.628654 52.968712,102.659790 
z"/>
<path fill="#D0F0FB" opacity="1.000000" stroke="none" 
	d="
M58.431335,92.162659 
	C58.627598,91.554749 59.122692,90.841476 59.994179,90.155357 
	C59.823772,90.807434 59.276970,91.432373 58.431335,92.162659 
z"/>
<path fill="#D0F0FB" opacity="1.000000" stroke="none" 
	d="
M57.182266,93.623642 
	C57.049652,93.420921 57.153015,93.262772 57.440941,93.077621 
	C57.686657,93.282249 57.617569,93.488113 57.182266,93.623642 
z"/>
<path fill="#1C1C8A" opacity="1.000000" stroke="none" 
	d="
M286.908081,241.110458 
	C286.944366,241.298080 286.725067,241.565063 286.262054,241.924637 
	C286.229736,241.741425 286.441101,241.465622 286.908081,241.110458 
z"/>
<path fill="#F0FAFA" opacity="1.000000" stroke="none" 
	d="
M150.720016,76.847633 
	C151.766006,78.138077 152.532974,79.275276 153.364563,80.671616 
	C152.735031,81.866547 152.040848,82.802322 151.346680,83.738098 
	C150.644089,82.931221 149.652756,82.234444 149.294937,81.296097 
	C148.354584,78.830101 147.690018,76.258949 146.952942,73.378281 
	C148.140533,74.249382 149.290756,75.471886 150.720016,76.847633 
z"/>
<path fill="#F0FAFA" opacity="1.000000" stroke="none" 
	d="
M138.962067,66.344933 
	C139.020477,65.717216 139.041199,65.451485 139.105865,64.786819 
	C140.037201,65.316566 140.924606,66.245239 141.938202,67.466957 
	C141.558792,69.432236 141.053162,71.104469 140.551849,72.762436 
	C136.343567,71.465576 136.343567,71.465576 138.962067,66.344933 
z"/>
<path fill="#F0FAFA" opacity="1.000000" stroke="none" 
	d="
M158.791855,86.778397 
	C159.020340,86.986229 159.161133,87.397247 159.153442,87.613312 
	C158.046051,88.224785 156.946350,88.620193 155.753433,89.049118 
	C155.485092,86.884483 155.280716,85.235771 155.073883,83.229294 
	C155.376694,83.020531 155.681946,83.169540 156.207260,83.451324 
	C157.139328,84.579597 157.851349,85.575081 158.791855,86.778397 
z"/>
<path fill="#F0FAFA" opacity="1.000000" stroke="none" 
	d="
M135.240082,106.868698 
	C134.627029,106.238358 134.307999,105.470779 133.986298,104.372612 
	C134.755432,104.016869 135.527206,103.991707 136.298996,103.966553 
	C136.044037,104.888191 135.789078,105.809830 135.240082,106.868698 
z"/>
<path fill="#F0FAFA" opacity="1.000000" stroke="none" 
	d="
M146.570679,90.803658 
	C146.673584,91.860321 146.564651,92.676315 146.455719,93.492310 
	C146.038116,93.396797 145.620514,93.301292 145.202927,93.205780 
	C145.588226,92.324852 145.973541,91.443916 146.570679,90.803658 
z"/>
<path fill="#F0FAFA" opacity="1.000000" stroke="none" 
	d="
M141.003113,97.369171 
	C141.445206,97.001671 141.888596,97.002434 142.664459,97.004501 
	C142.853043,98.159088 142.709137,99.312370 142.565231,100.465660 
	C142.264618,100.487465 141.964005,100.509270 141.663391,100.531075 
	C141.443726,99.599861 141.224060,98.668655 141.003113,97.369171 
z"/>
<path fill="#F0FAFA" opacity="1.000000" stroke="none" 
	d="
M146.082672,72.151871 
	C146.268890,72.109589 146.549881,72.305077 146.901764,72.751854 
	C146.707581,72.798645 146.442520,72.594147 146.082672,72.151871 
z"/>
</svg>